<svg width="24" height="26" viewBox="0 0 24 26" fill="none" xmlns="http://www.w3.org/2000/svg">
<path fill-rule="evenodd" clip-rule="evenodd" d="M9.17874 4.21678C6.77457 5.28279 5.07102 7.83874 5.0709 10.8425V16.6958L2.76844 19.1823C2.6053 19.3501 2.50331 19.5891 2.50331 19.8544V19.9747C2.50331 20.9897 3.25049 21.8125 4.17217 21.8125H8.36559C8.55359 23.6463 9.96669 25.0713 11.682 25.0713C13.3974 25.0713 14.8105 23.6463 14.9985 21.8125H19.1919C20.1136 21.8125 20.8607 20.9897 20.8607 19.9747V19.8546C20.8608 19.5893 20.7588 19.3502 20.5956 19.1823L18.2934 16.696V11.9719C19.7654 11.5849 20.8607 10.1133 20.8607 8.35703C20.8607 6.30569 19.3664 4.64276 17.523 4.64276C16.8741 4.64276 16.2684 4.84887 15.7559 5.20548C15.2801 4.80215 14.7521 4.46799 14.1853 4.21667V3.22577C14.1853 2.02846 13.3478 1.43844 13.0187 1.2572C12.5903 1.02123 12.1154 0.928483 11.682 0.928483C11.2486 0.928483 10.7737 1.02123 10.3454 1.2572C10.0163 1.43844 9.17874 2.02846 9.17874 3.22577V4.21678ZM14.6051 6.55227C13.7884 5.90602 12.779 5.52306 11.6821 5.52306C8.93717 5.52306 6.73989 7.9215 6.73976 10.8425V17.0817C6.73976 17.343 6.64125 17.5773 6.48377 17.744L4.41819 19.9747H18.9459L17.1249 18.0082C16.8048 17.6626 16.6245 17.1897 16.6245 16.696V11.9352C15.2176 11.4986 14.1853 10.062 14.1853 8.35703C14.1853 7.70201 14.3377 7.08658 14.6051 6.55227ZM12.4555 3.68523C12.4512 3.70109 12.4467 3.71671 12.442 3.73211C12.1925 3.70114 11.939 3.68523 11.6821 3.68523C11.4252 3.68523 11.1716 3.70115 10.9221 3.73214C10.9174 3.71673 10.9128 3.7011 10.9085 3.68523H10.8476V3.22577C10.8476 2.97204 11.2208 2.76632 11.682 2.76632C12.1432 2.76632 12.5165 2.97204 12.5165 3.22577V3.68523H12.4555ZM10.0563 21.8125C10.2278 22.6267 10.8906 23.2334 11.682 23.2334C12.4735 23.2334 13.1363 22.6267 13.3077 21.8125H10.0563ZM15.8542 8.35703C15.8542 7.33136 16.6013 6.4999 17.523 6.4999C18.4447 6.4999 19.1919 7.33136 19.1919 8.35703C19.1919 9.38273 18.4447 10.2142 17.523 10.2142C16.6013 10.2142 15.8542 9.38273 15.8542 8.35703Z" fill="#E7440E"/>
</svg>
