<svg width="21" height="21" viewBox="0 0 21 21" fill="none" xmlns="http://www.w3.org/2000/svg">
<path fill-rule="evenodd" clip-rule="evenodd" d="M13.6784 0C15.7866 0 16.8405 0 17.9753 0.358747C19.2143 0.809719 20.1901 1.78551 20.6411 3.0245C20.9998 4.15919 20.9998 5.21338 20.9998 7.32142V13.6784C20.9998 15.7866 20.9998 16.8405 20.6411 17.9753C20.1901 19.2143 19.2143 20.1901 17.9753 20.6409C16.8405 20.9998 15.7866 20.9998 13.6784 20.9998H7.32142C5.21321 20.9998 4.15919 20.9998 3.0245 20.6409C1.78551 20.1901 0.809719 19.2143 0.358747 17.9753C0 16.8405 0 15.7866 0 13.6784V7.32142C0 5.21338 0 4.15919 0.358747 3.0245C0.809719 1.78551 1.78551 0.809719 3.0245 0.358747C4.15919 0 5.21321 0 7.32142 0H13.6784Z" fill="url(#paint0_linear_280_2134)"/>
<defs>
<linearGradient id="paint0_linear_280_2134" x1="0" y1="0" x2="0" y2="20.9998" gradientUnits="userSpaceOnUse">
<stop stop-color="#67FF81"/>
<stop offset="1" stop-color="#01B41F"/>
</linearGradient>
</defs>
</svg>
