<svg width="20" height="20" viewBox="0 0 20 20" fill="none" xmlns="http://www.w3.org/2000/svg">
<path d="M13.85 2.49027C13.7532 2.39332 13.6383 2.3164 13.5117 2.26391C13.3852 2.21143 13.2495 2.18442 13.1125 2.18442C12.9755 2.18442 12.8398 2.21143 12.7132 2.26391C12.5867 2.3164 12.4717 2.39332 12.375 2.49027L5.44997 9.41133C5.37272 9.48838 5.31143 9.5799 5.26961 9.68066C5.2278 9.78141 5.20627 9.88942 5.20627 9.9985C5.20627 10.1076 5.2278 10.2156 5.26961 10.3163C5.31143 10.4171 5.37272 10.5086 5.44997 10.5857L12.375 17.5067C12.7833 17.9148 13.4416 17.9148 13.85 17.5067C14.2583 17.0986 14.2583 16.4407 13.85 16.0326L7.81664 9.99433L13.8583 3.9561C14.2583 3.55633 14.2583 2.89004 13.85 2.49027Z" fill="#1E232C" stroke="#1E232C" stroke-width="0.2"/>
</svg>
