<svg width="30" height="30" viewBox="0 0 30 30" fill="none" xmlns="http://www.w3.org/2000/svg">
<path d="M2.41513 2.41757C2.75249 2.08021 3.29945 2.08021 3.63681 2.41757L21.9091 20.6898C22.2464 21.0272 22.2464 21.5742 21.9091 21.9115C21.5718 22.2489 21.0248 22.2489 20.6874 21.9115L2.41513 3.63924C2.07777 3.30189 2.07777 2.75492 2.41513 2.41757Z" fill="white"/>
<path d="M21.8901 2.39608C21.5527 2.05873 21.0057 2.05873 20.6684 2.39608L2.39608 20.6684C2.05873 21.0057 2.05873 21.5527 2.39608 21.8901C2.73344 22.2274 3.28041 22.2274 3.61776 21.8901L21.8901 3.61776C22.2274 3.28041 22.2274 2.73344 21.8901 2.39608Z" fill="white"/>
</svg>
