<svg width="25" height="12" viewBox="0 0 25 12" fill="none" xmlns="http://www.w3.org/2000/svg">
<path opacity="0.35" d="M0.51381 2.74032C0.51381 1.51065 1.51065 0.51381 2.74032 0.51381H19.8673C21.097 0.51381 22.0938 1.51065 22.0938 2.74032V8.90604C22.0938 10.1357 21.097 11.1325 19.8673 11.1325H2.74032C1.51065 11.1325 0.51381 10.1357 0.51381 8.90604V2.74032Z" stroke="black"/>
<path opacity="0.4" d="M23.6353 3.76802V7.8785C24.4622 7.53037 25 6.72051 25 5.82326C25 4.92601 24.4622 4.11616 23.6353 3.76802Z" fill="black"/>
<path d="M2.05524 3.18562C2.05524 2.56133 2.56133 2.05524 3.18562 2.05524H19.422C20.0463 2.05524 20.5524 2.56133 20.5524 3.18562V8.46074C20.5524 9.08503 20.0463 9.59112 19.422 9.59112H3.18562C2.56133 9.59112 2.05524 9.08503 2.05524 8.46074V3.18562Z" fill="black"/>
</svg>
