<svg width="15" height="15" viewBox="0 0 15 15" fill="none" xmlns="http://www.w3.org/2000/svg">
<path d="M14.0625 13.125H0.9375V14.0625H14.0625V13.125Z" fill="white"/>
<path d="M11.4844 5.15625H3.75C3.50144 5.1565 3.26312 5.25535 3.08736 5.43111C2.9116 5.60687 2.81275 5.84519 2.8125 6.09375V9.84375C2.81323 10.4651 3.0604 11.0608 3.49978 11.5002C3.93916 11.9396 4.53487 12.1868 5.15625 12.1875H8.90625C9.52763 12.1868 10.1233 11.9396 10.5627 11.5002C11.0021 11.0608 11.2493 10.4651 11.25 9.84375V9.375H11.4844C12.0438 9.375 12.5803 9.15276 12.9759 8.75718C13.3715 8.36159 13.5938 7.82507 13.5938 7.26562C13.5938 6.70618 13.3715 6.16966 12.9759 5.77407C12.5803 5.37849 12.0438 5.15625 11.4844 5.15625ZM10.3125 9.84375C10.3121 10.2166 10.1638 10.574 9.90017 10.8377C9.63653 11.1013 9.27909 11.2496 8.90625 11.25H5.15625C4.78341 11.2496 4.42597 11.1013 4.16233 10.8377C3.8987 10.574 3.75041 10.2166 3.75 9.84375V6.09375H10.3125V9.84375ZM11.4844 8.4375H11.25V6.09375H11.4844C11.7952 6.09375 12.0932 6.21722 12.313 6.43698C12.5328 6.65675 12.6562 6.95482 12.6562 7.26562C12.6562 7.57643 12.5328 7.8745 12.313 8.09427C12.0932 8.31403 11.7952 8.4375 11.4844 8.4375Z" fill="white"/>
<path d="M8.90626 4.21875H7.96876V4.15031C7.96938 3.9761 7.92115 3.8052 7.82955 3.657C7.73796 3.50881 7.60666 3.38926 7.45056 3.31191L6.19262 2.68294C5.88047 2.52812 5.61793 2.28896 5.43476 1.99256C5.25159 1.69615 5.15511 1.35437 5.15626 1.00594V0.46875H6.09376V1.00594C6.09319 1.18014 6.14144 1.35102 6.23303 1.49921C6.32462 1.64739 6.45589 1.76695 6.61196 1.84434L7.8699 2.47331C8.18204 2.62815 8.44456 2.86731 8.62773 3.16371C8.8109 3.46011 8.90739 3.80189 8.90626 4.15031V4.21875Z" fill="white"/>
</svg>
