<svg width="30" height="30" viewBox="0 0 30 30" fill="none" xmlns="http://www.w3.org/2000/svg">
<path d="M18.1172 15.0105L24.9844 8.14662C25.8465 7.28446 25.8465 5.89328 24.9844 5.03111C24.1222 4.16895 22.731 4.16895 21.8689 5.03111L15.0017 11.895L8.13616 5.02944C7.274 4.16727 5.88281 4.16727 5.02065 5.02944C4.15848 5.8916 4.15848 7.28278 5.02065 8.14495L11.8878 15.0088L5.02065 21.8726C4.15848 22.7348 4.15848 24.126 5.02065 24.9881C5.88449 25.8503 7.28069 25.8503 8.13616 24.9881L15.0033 18.1243L21.8705 24.9881C22.7327 25.8503 24.1239 25.8503 24.986 24.9881C25.8415 24.126 25.8415 22.7348 24.9777 21.871L18.1172 15.0105Z" fill="#E7440E"/>
</svg>
