<svg width="923" height="145" viewBox="0 0 923 145" fill="none" xmlns="http://www.w3.org/2000/svg">
<path d="M152.892 54.4622C149.341 54.4622 146.003 53.762 142.877 52.3617C139.751 50.9364 137.001 48.9735 134.625 46.4729C132.275 43.9723 130.424 41.0842 129.074 37.8085C127.749 34.5077 127.086 30.9819 127.086 27.2311C127.086 23.4553 127.749 19.9295 129.074 16.6537C130.424 13.353 132.275 10.4648 134.625 7.98929C137.001 5.48873 139.751 3.53829 142.877 2.13798C146.003 0.712659 149.341 0 152.892 0C157.143 0 161.056 0.987721 164.632 2.96316C168.208 4.9136 171.171 7.52669 173.521 10.8024L163.469 16.2036C162.169 14.7033 160.606 13.503 158.781 12.6028C156.955 11.7026 154.992 11.2525 152.892 11.2525C150.891 11.2525 149.003 11.6651 147.228 12.4903C145.478 13.3155 143.927 14.4657 142.577 15.9411C141.252 17.3914 140.214 19.0793 139.464 21.0047C138.714 22.9301 138.339 25.0056 138.339 27.2311C138.339 29.4316 138.714 31.4945 139.464 33.42C140.214 35.3454 141.252 37.0458 142.577 38.5211C143.927 39.9714 145.478 41.1217 147.228 41.9719C149.003 42.7971 150.891 43.2097 152.892 43.2097C154.992 43.2097 156.955 42.7596 158.781 41.8594C160.606 40.9342 162.169 39.7089 163.469 38.1835L173.521 43.6598C171.171 46.9105 168.208 49.5236 164.632 51.499C161.056 53.4745 157.143 54.4622 152.892 54.4622Z" fill="white"/>
<path d="M180.234 53.487V0.975218H201.613C204.489 0.975218 207.09 1.70038 209.415 3.15071C211.741 4.60103 213.579 6.55147 214.929 9.00201C216.304 11.4276 216.992 14.1032 216.992 17.0288C216.992 19.2793 216.617 21.3798 215.867 23.3302C215.116 25.2557 214.041 26.9685 212.641 28.4689C211.266 29.9442 209.64 31.132 207.765 32.0322L220.218 53.487H207.24L195.387 33.0824H191.486V53.487H180.234ZM191.486 21.8299H200.263C201.263 21.8299 202.176 21.5798 203.001 21.0797C203.826 20.5546 204.489 19.8669 204.989 19.0168C205.489 18.1666 205.739 17.2289 205.739 16.2036C205.739 15.1784 205.489 14.2407 204.989 13.3905C204.489 12.5403 203.826 11.8652 203.001 11.365C202.176 10.8399 201.263 10.5774 200.263 10.5774H191.486V21.8299Z" fill="white"/>
<path d="M226.24 53.487V0.975218H259.698V12.2277H237.493V19.7294H254.596V30.9819H237.493V42.2345H259.698V53.487H226.24Z" fill="white"/>
<path d="M283.94 0.975218H296.618L315.672 53.487H303.744L300.743 45.2351H279.814L276.813 53.487H264.885L283.94 0.975218ZM283.94 33.9826H296.618L290.241 16.5787L283.94 33.9826Z" fill="white"/>
<path d="M355.374 0.975218V12.2277H340.371V53.487H329.119V12.2277H314.115V0.975218H355.374Z" fill="white"/>
<path d="M362.867 53.487V0.975218H396.325V12.2277H374.12V19.7294H391.224V30.9819H374.12V42.2345H396.325V53.487H362.867Z" fill="white"/>
<path d="M440.127 0.975218H452.805L471.859 53.487H459.931L456.931 45.2351H436.001L433 53.487H421.073L440.127 0.975218ZM440.127 33.9826H452.805L446.428 16.5787L440.127 33.9826Z" fill="white"/>
<path d="M499.185 54.4622C495.634 54.4622 492.296 53.762 489.17 52.3617C486.045 50.9364 483.294 48.9735 480.918 46.4729C478.568 43.9723 476.718 41.0842 475.367 37.8085C474.042 34.5077 473.379 30.9819 473.379 27.2311C473.379 23.4553 474.042 19.9295 475.367 16.6537C476.718 13.353 478.568 10.4648 480.918 7.98929C483.294 5.48873 486.045 3.53829 489.17 2.13798C492.296 0.712659 495.634 0 499.185 0C503.436 0 507.349 0.987721 510.925 2.96316C514.501 4.9136 517.464 7.52669 519.815 10.8024L509.762 16.2036C508.462 14.7033 506.899 13.503 505.074 12.6028C503.248 11.7026 501.286 11.2525 499.185 11.2525C497.185 11.2525 495.297 11.6651 493.521 12.4903C491.771 13.3155 490.221 14.4657 488.87 15.9411C487.545 17.3914 486.507 19.0793 485.757 21.0047C485.007 22.9301 484.632 25.0056 484.632 27.2311C484.632 29.4316 485.007 31.4945 485.757 33.42C486.507 35.3454 487.545 37.0458 488.87 38.5211C490.221 39.9714 491.771 41.1217 493.521 41.9719C495.297 42.7971 497.185 43.2097 499.185 43.2097C501.286 43.2097 503.248 42.7596 505.074 41.8594C506.899 40.9342 508.462 39.7089 509.762 38.1835L519.815 43.6598C517.464 46.9105 514.501 49.5236 510.925 51.499C507.349 53.4745 503.436 54.4622 499.185 54.4622Z" fill="white"/>
<path d="M550.466 54.4622C546.915 54.4622 543.577 53.762 540.451 52.3617C537.326 50.9364 534.575 48.9735 532.199 46.4729C529.849 43.9723 527.999 41.0842 526.648 37.8085C525.323 34.5077 524.66 30.9819 524.66 27.2311C524.66 23.4553 525.323 19.9295 526.648 16.6537C527.999 13.353 529.849 10.4648 532.199 7.98929C534.575 5.48873 537.326 3.53829 540.451 2.13798C543.577 0.712659 546.915 0 550.466 0C554.717 0 558.63 0.987721 562.206 2.96316C565.782 4.9136 568.745 7.52669 571.096 10.8024L561.043 16.2036C559.743 14.7033 558.18 13.503 556.355 12.6028C554.529 11.7026 552.567 11.2525 550.466 11.2525C548.466 11.2525 546.578 11.6651 544.802 12.4903C543.052 13.3155 541.502 14.4657 540.151 15.9411C538.826 17.3914 537.788 19.0793 537.038 21.0047C536.288 22.9301 535.913 25.0056 535.913 27.2311C535.913 29.4316 536.288 31.4945 537.038 33.42C537.788 35.3454 538.826 37.0458 540.151 38.5211C541.502 39.9714 543.052 41.1217 544.802 41.9719C546.578 42.7971 548.466 43.2097 550.466 43.2097C552.567 43.2097 554.529 42.7596 556.355 41.8594C558.18 40.9342 559.743 39.7089 561.043 38.1835L571.096 43.6598C568.745 46.9105 565.782 49.5236 562.206 51.499C558.63 53.4745 554.717 54.4622 550.466 54.4622Z" fill="white"/>
<path d="M601.822 54.4622C598.271 54.4622 594.933 53.762 591.807 52.3617C588.682 50.9364 585.931 48.9735 583.555 46.4729C581.18 43.9723 579.317 41.0842 577.967 37.8085C576.617 34.5077 575.941 30.9819 575.941 27.2311C575.941 23.4803 576.617 19.967 577.967 16.6912C579.317 13.3905 581.18 10.4898 583.555 7.98929C585.931 5.48873 588.682 3.53829 591.807 2.13798C594.933 0.712659 598.271 0 601.822 0C605.398 0 608.749 0.712659 611.874 2.13798C615 3.53829 617.751 5.48873 620.126 7.98929C622.502 10.4898 624.352 13.3905 625.677 16.6912C627.028 19.967 627.703 23.4803 627.703 27.2311C627.703 30.9819 627.028 34.5077 625.677 37.8085C624.352 41.0842 622.502 43.9723 620.126 46.4729C617.751 48.9735 615 50.9364 611.874 52.3617C608.749 53.762 605.398 54.4622 601.822 54.4622ZM601.822 43.2097C603.823 43.2097 605.698 42.7971 607.448 41.9719C609.224 41.1217 610.787 39.9714 612.137 38.5211C613.487 37.0458 614.537 35.3454 615.288 33.42C616.063 31.4945 616.45 29.4316 616.45 27.2311C616.45 25.0306 616.063 22.9676 615.288 21.0422C614.537 19.1168 613.487 17.4289 612.137 15.9786C610.787 14.5032 609.224 13.353 607.448 12.5278C605.698 11.6776 603.823 11.2525 601.822 11.2525C599.822 11.2525 597.934 11.6776 596.158 12.5278C594.408 13.353 592.858 14.5032 591.507 15.9786C590.157 17.4289 589.094 19.1168 588.319 21.0422C587.569 22.9676 587.194 25.0306 587.194 27.2311C587.194 29.4316 587.569 31.4945 588.319 33.42C589.094 35.3454 590.157 37.0458 591.507 38.5211C592.858 39.9714 594.408 41.1217 596.158 41.9719C597.934 42.7971 599.822 43.2097 601.822 43.2097Z" fill="white"/>
<path d="M655.743 54.4622C651.542 54.4622 647.829 53.437 644.603 51.3865C641.403 49.336 638.89 46.5854 637.064 43.1346C635.264 39.6589 634.364 35.808 634.364 31.5821V0.975218H645.616V31.5821C645.616 33.7075 646.016 35.658 646.816 37.4334C647.617 39.1838 648.767 40.5841 650.267 41.6343C651.792 42.6845 653.618 43.2097 655.743 43.2097C657.894 43.2097 659.719 42.6971 661.22 41.6718C662.72 40.6216 663.858 39.2213 664.633 37.4709C665.408 35.6955 665.796 33.7325 665.796 31.5821V0.975218H677.048V31.5821C677.048 34.7578 676.536 37.7334 675.51 40.5091C674.485 43.2597 673.022 45.6852 671.122 47.7857C669.221 49.8862 666.971 51.524 664.37 52.6993C661.77 53.8746 658.894 54.4622 655.743 54.4622Z" fill="white"/>
<path d="M684.985 53.487V0.975218H697.138L716.342 33.1574V0.975218H727.595V53.487H715.442L696.238 21.3048V53.487H684.985Z" fill="white"/>
<path d="M776.391 0.975218V12.2277H761.388V53.487H750.136V12.2277H735.132V0.975218H776.391Z" fill="white"/>
<path d="M13.428 143.507L0 90.9954H11.6276L19.7294 122.802L27.8312 90.9954H38.1835L46.2854 122.802L54.3872 90.9954H66.0148L52.6618 143.507H39.9839L33.0074 116.276L26.1058 143.507H13.428Z" fill="white"/>
<path d="M73.9619 143.507V90.9954H85.2144V143.507H73.9619Z" fill="white"/>
<path d="M135.086 90.9954V102.248H120.083V143.507H108.83V102.248H93.8266V90.9954H135.086Z" fill="white"/>
<path d="M172.435 90.9954H183.688V143.507H172.435V121.002H153.831V143.507H142.579V90.9954H153.831V109.75H172.435V90.9954Z" fill="white"/>
<path d="M210.709 143.507V90.9954H244.167V102.248H221.962V109.75H239.066V121.002H221.962V132.255H244.167V143.507H210.709Z" fill="white"/>
<path d="M252.393 143.507L262.596 90.9954H272.198L283.975 121.977L295.753 90.9954H305.355L315.557 143.507H304.08L298.604 115.151L287.876 143.507H280.075L269.347 115.151L263.871 143.507H252.393Z" fill="white"/>
<path d="M337.638 90.9954H350.316L369.37 143.507H357.443L354.442 135.255H333.512L330.512 143.507H318.584L337.638 90.9954ZM337.638 124.003H350.316L343.94 106.599L337.638 124.003Z" fill="white"/>
<path d="M376.446 143.507V90.9954H387.699V143.507H376.446Z" fill="white"/>
<path d="M397.812 143.507V90.9954H409.064V132.255H429.694V143.507H397.812Z" fill="white"/>
<path d="M471.132 144.482C468.007 144.482 465.181 143.72 462.655 142.194C460.155 140.644 458.167 138.606 456.692 136.08C455.216 133.555 454.479 130.804 454.479 127.829C454.479 126.253 454.616 124.865 454.891 123.665C455.191 122.44 455.666 121.277 456.316 120.177C456.992 119.052 457.879 117.864 458.98 116.614C460.105 115.363 461.505 113.9 463.181 112.225C462.33 111.35 461.593 110.537 460.968 109.787C460.367 109.012 459.867 108.237 459.467 107.462C459.092 106.661 458.817 105.836 458.642 104.986C458.467 104.111 458.379 103.148 458.379 102.098C458.379 99.6223 458.967 97.4218 460.142 95.4964C461.318 93.5709 462.868 92.0581 464.793 90.9578C466.744 89.8326 468.857 89.27 471.132 89.27C473.483 89.27 475.621 89.8451 477.546 90.9954C479.497 92.1206 481.047 93.6585 482.197 95.6089C483.373 97.5343 483.96 99.6973 483.96 102.098C483.96 103.173 483.86 104.148 483.66 105.023C483.485 105.899 483.198 106.724 482.797 107.499C482.397 108.274 481.885 109.049 481.26 109.825C480.659 110.575 479.934 111.375 479.084 112.225L486.736 119.877L496.863 109.75V125.653L494.688 127.829L502.414 135.555L494.463 143.507L486.736 135.78C485.035 137.481 483.548 138.894 482.272 140.019C480.997 141.144 479.797 142.032 478.672 142.682C477.571 143.332 476.421 143.795 475.221 144.07C474.045 144.345 472.683 144.482 471.132 144.482ZM471.132 133.23C471.807 133.23 472.395 133.142 472.895 132.967C473.42 132.767 473.945 132.455 474.471 132.03C474.996 131.604 475.596 131.054 476.271 130.379C476.946 129.679 477.784 128.829 478.784 127.829L471.132 120.177C470.082 121.227 469.207 122.102 468.507 122.802C467.807 123.478 467.256 124.065 466.856 124.565C466.456 125.065 466.169 125.566 465.994 126.066C465.819 126.566 465.731 127.153 465.731 127.829C465.731 128.904 465.994 129.854 466.519 130.679C467.044 131.479 467.719 132.105 468.544 132.555C469.369 133.005 470.232 133.23 471.132 133.23ZM471.132 105.999C471.958 105.199 472.583 104.598 473.008 104.198C473.458 103.798 473.758 103.448 473.908 103.148C474.058 102.823 474.133 102.398 474.133 101.873C474.133 100.848 473.795 100.097 473.12 99.6223C472.445 99.1222 471.782 98.8721 471.132 98.8721C470.382 98.8721 469.694 99.1597 469.069 99.7348C468.444 100.285 468.132 100.998 468.132 101.873C468.132 102.398 468.232 102.836 468.432 103.186C468.632 103.536 468.944 103.923 469.369 104.348C469.82 104.748 470.407 105.299 471.132 105.999Z" fill="white"/>
<path d="M527.919 143.507V90.9954H547.723C550.599 90.9954 553.199 91.733 555.525 93.2083C557.875 94.6587 559.738 96.6091 561.114 99.0597C562.489 101.485 563.177 104.148 563.177 107.049C563.177 110 562.464 112.688 561.039 115.113C559.638 117.539 557.763 119.477 555.412 120.927C553.062 122.377 550.499 123.103 547.723 123.103H539.171V143.507H527.919ZM539.171 111.85H546.448C547.448 111.85 548.361 111.6 549.186 111.1C550.011 110.575 550.674 109.887 551.174 109.037C551.674 108.187 551.924 107.249 551.924 106.224C551.924 105.199 551.674 104.261 551.174 103.411C550.674 102.56 550.011 101.885 549.186 101.385C548.361 100.86 547.448 100.598 546.448 100.598H539.171V111.85Z" fill="white"/>
<path d="M578.879 90.9954H591.556L610.611 143.507H598.683L595.682 135.255H574.753L571.752 143.507H559.824L578.879 90.9954ZM578.879 124.003H591.556L585.18 106.599L578.879 124.003Z" fill="white"/>
<path d="M632.762 144.482C629.812 144.482 626.986 144.02 624.285 143.095C621.585 142.144 619.222 140.794 617.196 139.044C615.171 137.268 613.708 135.155 612.808 132.705L623.385 128.804C623.635 129.529 624.185 130.229 625.036 130.904C625.911 131.579 627.011 132.142 628.336 132.592C629.662 133.017 631.137 133.23 632.762 133.23C634.263 133.23 635.676 133.017 637.001 132.592C638.326 132.142 639.401 131.529 640.227 130.754C641.052 129.979 641.464 129.079 641.464 128.054C641.464 127.003 641.027 126.141 640.152 125.466C639.301 124.765 638.201 124.215 636.851 123.815C635.525 123.39 634.163 123.078 632.762 122.877C628.962 122.327 625.548 121.427 622.523 120.177C619.522 118.902 617.146 117.151 615.396 114.926C613.671 112.7 612.808 109.875 612.808 106.449C612.808 103.173 613.733 100.31 615.584 97.8594C617.434 95.3838 619.872 93.4584 622.898 92.0831C625.948 90.7078 629.237 90.0201 632.762 90.0201C635.713 90.0201 638.539 90.4952 641.239 91.4455C643.965 92.3707 646.34 93.721 648.366 95.4964C650.391 97.2718 651.842 99.3972 652.717 101.873L642.14 105.699C641.889 104.973 641.327 104.286 640.452 103.636C639.601 102.961 638.514 102.41 637.188 101.985C635.863 101.56 634.388 101.348 632.762 101.348C631.312 101.323 629.924 101.535 628.599 101.985C627.274 102.435 626.186 103.048 625.336 103.823C624.486 104.598 624.06 105.474 624.06 106.449C624.06 107.799 624.461 108.812 625.261 109.487C626.061 110.137 627.111 110.6 628.411 110.875C629.737 111.15 631.187 111.4 632.762 111.625C636.363 112.15 639.676 113.088 642.702 114.438C645.728 115.788 648.153 117.589 649.979 119.839C651.804 122.09 652.717 124.828 652.717 128.054C652.717 131.329 651.792 134.205 649.941 136.681C648.116 139.131 645.69 141.044 642.665 142.419C639.639 143.795 636.338 144.482 632.762 144.482Z" fill="white"/>
<path d="M680.161 144.482C677.21 144.482 674.384 144.02 671.684 143.095C668.983 142.144 666.62 140.794 664.595 139.044C662.569 137.268 661.106 135.155 660.206 132.705L670.784 128.804C671.034 129.529 671.584 130.229 672.434 130.904C673.309 131.579 674.409 132.142 675.735 132.592C677.06 133.017 678.535 133.23 680.161 133.23C681.661 133.23 683.074 133.017 684.399 132.592C685.724 132.142 686.8 131.529 687.625 130.754C688.45 129.979 688.863 129.079 688.863 128.054C688.863 127.003 688.425 126.141 687.55 125.466C686.7 124.765 685.599 124.215 684.249 123.815C682.924 123.39 681.561 123.078 680.161 122.877C676.36 122.327 672.947 121.427 669.921 120.177C666.92 118.902 664.545 117.151 662.794 114.926C661.069 112.7 660.206 109.875 660.206 106.449C660.206 103.173 661.131 100.31 662.982 97.8594C664.832 95.3838 667.27 93.4584 670.296 92.0831C673.347 90.7078 676.635 90.0201 680.161 90.0201C683.111 90.0201 685.937 90.4952 688.638 91.4455C691.363 92.3707 693.739 93.721 695.764 95.4964C697.79 97.2718 699.24 99.3972 700.115 101.873L689.538 105.699C689.288 104.973 688.725 104.286 687.85 103.636C687 102.961 685.912 102.41 684.587 101.985C683.261 101.56 681.786 101.348 680.161 101.348C678.71 101.323 677.323 101.535 675.997 101.985C674.672 102.435 673.584 103.048 672.734 103.823C671.884 104.598 671.459 105.474 671.459 106.449C671.459 107.799 671.859 108.812 672.659 109.487C673.459 110.137 674.509 110.6 675.81 110.875C677.135 111.15 678.585 111.4 680.161 111.625C683.761 112.15 687.075 113.088 690.1 114.438C693.126 115.788 695.552 117.589 697.377 119.839C699.202 122.09 700.115 124.828 700.115 128.054C700.115 131.329 699.19 134.205 697.34 136.681C695.514 139.131 693.089 141.044 690.063 142.419C687.037 143.795 683.737 144.482 680.161 144.482Z" fill="white"/>
<path d="M718.835 143.507L705.407 90.9954H717.034L725.136 122.802L733.238 90.9954H743.59L751.692 122.802L759.794 90.9954H771.422L758.069 143.507H745.391L738.414 116.276L731.513 143.507H718.835Z" fill="white"/>
<path d="M801.085 144.482C797.535 144.482 794.196 143.782 791.071 142.382C787.945 140.957 785.194 138.994 782.819 136.493C780.443 133.992 778.58 131.104 777.23 127.829C775.88 124.528 775.205 121.002 775.205 117.251C775.205 113.5 775.88 109.987 777.23 106.711C778.58 103.411 780.443 100.51 782.819 98.0094C785.194 95.5089 787.945 93.5584 791.071 92.1581C794.196 90.7328 797.535 90.0201 801.085 90.0201C804.661 90.0201 808.012 90.7328 811.138 92.1581C814.263 93.5584 817.014 95.5089 819.389 98.0094C821.765 100.51 823.615 103.411 824.941 106.711C826.291 109.987 826.966 113.5 826.966 117.251C826.966 121.002 826.291 124.528 824.941 127.829C823.615 131.104 821.765 133.992 819.389 136.493C817.014 138.994 814.263 140.957 811.138 142.382C808.012 143.782 804.661 144.482 801.085 144.482ZM801.085 133.23C803.086 133.23 804.961 132.817 806.712 131.992C808.487 131.142 810.05 129.992 811.4 128.541C812.75 127.066 813.801 125.366 814.551 123.44C815.326 121.515 815.714 119.452 815.714 117.251C815.714 115.051 815.326 112.988 814.551 111.062C813.801 109.137 812.75 107.449 811.4 105.999C810.05 104.523 808.487 103.373 806.712 102.548C804.961 101.698 803.086 101.273 801.085 101.273C799.085 101.273 797.197 101.698 795.422 102.548C793.671 103.373 792.121 104.523 790.771 105.999C789.42 107.449 788.358 109.137 787.582 111.062C786.832 112.988 786.457 115.051 786.457 117.251C786.457 119.452 786.832 121.515 787.582 123.44C788.358 125.366 789.42 127.066 790.771 128.541C792.121 129.992 793.671 131.142 795.422 131.992C797.197 132.817 799.085 133.23 801.085 133.23Z" fill="white"/>
<path d="M833.334 143.507V90.9954H854.714C857.589 90.9954 860.19 91.7205 862.515 93.1708C864.841 94.6212 866.679 96.5716 868.029 99.0221C869.404 101.448 870.092 104.123 870.092 107.049C870.092 109.299 869.717 111.4 868.967 113.35C868.217 115.276 867.141 116.989 865.741 118.489C864.366 119.964 862.74 121.152 860.865 122.052L873.318 143.507H860.34L848.487 123.103H844.586V143.507H833.334ZM844.586 111.85H853.363C854.364 111.85 855.276 111.6 856.101 111.1C856.927 110.575 857.589 109.887 858.089 109.037C858.589 108.187 858.84 107.249 858.84 106.224C858.84 105.199 858.589 104.261 858.089 103.411C857.589 102.56 856.927 101.885 856.101 101.385C855.276 100.86 854.364 100.598 853.363 100.598H844.586V111.85Z" fill="white"/>
<path d="M879.34 143.507V90.9954H896.744C900.37 90.9954 903.758 91.683 906.909 93.0583C910.085 94.4086 912.873 96.2965 915.273 98.7221C917.699 101.123 919.587 103.911 920.937 107.086C922.312 110.237 923 113.625 923 117.251C923 120.877 922.312 124.278 920.937 127.454C919.587 130.604 917.699 133.392 915.273 135.818C912.873 138.218 910.085 140.106 906.909 141.482C903.758 142.832 900.37 143.507 896.744 143.507H879.34ZM890.593 132.255H896.744C898.77 132.255 900.683 131.867 902.483 131.092C904.283 130.317 905.884 129.241 907.284 127.866C908.684 126.491 909.772 124.903 910.547 123.103C911.347 121.277 911.747 119.327 911.747 117.251C911.747 115.176 911.347 113.238 910.547 111.437C909.772 109.637 908.684 108.049 907.284 106.674C905.909 105.274 904.321 104.186 902.52 103.411C900.72 102.635 898.795 102.248 896.744 102.248H890.593V132.255Z" fill="white"/>
</svg>
