<svg width="238" height="23" viewBox="0 0 238 23" fill="none" xmlns="http://www.w3.org/2000/svg">
<path d="M0 0V17.914H13.5986V14.6022H3.93908V10.2115H12.6201V7.15056H3.93908V3.31184H13.3979V0H0Z" fill="#FF6B00"/>
<path d="M23.0684 17.914L27.4591 4.94267H23.9215L21.1867 13.7993H21.1365L18.4017 4.94267H14.6634L19.1042 17.914H23.0684Z" fill="#FF6B00"/>
<path d="M37.6588 10.0359H31.8631C31.8799 9.78498 31.93 9.50063 32.0137 9.18283C32.114 8.86503 32.2729 8.56395 32.4904 8.2796C32.7245 7.99525 33.0256 7.76108 33.3936 7.57709C33.7783 7.37637 34.255 7.27601 34.8237 7.27601C35.6935 7.27601 36.3375 7.51018 36.7556 7.97852C37.1905 8.44686 37.4916 9.13265 37.6588 10.0359ZM31.8631 12.294H41.2216C41.2885 11.2904 41.2049 10.3286 40.9707 9.40864C40.7365 8.48868 40.3518 7.66908 39.8166 6.94985C39.298 6.23061 38.629 5.66191 37.8094 5.24375C36.9898 4.80886 36.028 4.59141 34.9241 4.59141C33.9372 4.59141 33.034 4.76704 32.2144 5.1183C31.4115 5.46955 30.7174 5.95462 30.1319 6.5735C29.5465 7.17565 29.0949 7.89489 28.7771 8.73121C28.4593 9.56754 28.3004 10.4708 28.3004 11.4409C28.3004 12.4445 28.4509 13.3644 28.752 14.2008C29.0698 15.0371 29.5131 15.7563 30.0818 16.3585C30.6505 16.9606 31.3446 17.429 32.1642 17.7635C32.9838 18.0813 33.9038 18.2402 34.9241 18.2402C36.396 18.2402 37.6505 17.9057 38.6875 17.2366C39.7246 16.5676 40.494 15.4553 40.9958 13.8997H37.8596C37.7425 14.3011 37.4247 14.6858 36.9062 15.0538C36.3876 15.4051 35.7688 15.5807 35.0495 15.5807C34.0459 15.5807 33.2765 15.3214 32.7413 14.8029C32.206 14.2844 31.9133 13.4481 31.8631 12.294Z" fill="#FF6B00"/>
<path d="M43.3346 4.94267V17.914H46.8973V12.0681C46.8973 11.4827 46.9559 10.9391 47.073 10.4373C47.1901 9.93552 47.3824 9.50063 47.65 9.13265C47.9344 8.74794 48.3024 8.44686 48.754 8.22942C49.2056 8.01198 49.7576 7.90325 50.4099 7.90325C50.6273 7.90325 50.8531 7.91998 51.0873 7.95343C51.3215 7.97016 51.5222 7.99525 51.6895 8.0287V4.71686C51.4051 4.63323 51.1459 4.59141 50.9117 4.59141C50.4601 4.59141 50.0252 4.65832 49.607 4.79213C49.1889 4.92594 48.7958 5.1183 48.4278 5.3692C48.0598 5.60337 47.7337 5.89608 47.4493 6.24733C47.165 6.58186 46.9392 6.94985 46.7719 7.35128H46.7217V4.94267H43.3346Z" fill="#FF6B00"/>
<path d="M59.4841 19.5198L64.9035 4.94267H61.2153L58.3802 13.8244H58.33L55.3945 4.94267H51.606L56.1472 17.1112C56.2476 17.3621 56.2977 17.6297 56.2977 17.914C56.2977 18.2988 56.1807 18.65 55.9465 18.9678C55.729 19.2856 55.3861 19.4696 54.9178 19.5198C54.5666 19.5365 54.2153 19.5281 53.864 19.4947C53.5128 19.4612 53.1699 19.4278 52.8354 19.3943V22.3298C53.2033 22.3633 53.563 22.3884 53.9142 22.4051C54.2822 22.4385 54.6502 22.4553 55.0182 22.4553C56.2392 22.4553 57.1926 22.2295 57.8784 21.7779C58.5642 21.3262 59.0994 20.5735 59.4841 19.5198Z" fill="#FF6B00"/>
<path d="M69.2579 11.4409C69.2579 10.9224 69.3081 10.4122 69.4085 9.91043C69.5088 9.40864 69.6761 8.96538 69.9103 8.58068C70.1612 8.19597 70.4873 7.88653 70.8888 7.65236C71.2902 7.40146 71.792 7.27601 72.3942 7.27601C72.9963 7.27601 73.4981 7.40146 73.8995 7.65236C74.3177 7.88653 74.6439 8.19597 74.878 8.58068C75.1289 8.96538 75.3046 9.40864 75.4049 9.91043C75.5053 10.4122 75.5555 10.9224 75.5555 11.4409C75.5555 11.9594 75.5053 12.4696 75.4049 12.9714C75.3046 13.4564 75.1289 13.8997 74.878 14.3011C74.6439 14.6858 74.3177 14.9953 73.8995 15.2294C73.4981 15.4636 72.9963 15.5807 72.3942 15.5807C71.792 15.5807 71.2902 15.4636 70.8888 15.2294C70.4873 14.9953 70.1612 14.6858 69.9103 14.3011C69.6761 13.8997 69.5088 13.4564 69.4085 12.9714C69.3081 12.4696 69.2579 11.9594 69.2579 11.4409ZM65.6952 11.4409C65.6952 12.4779 65.8541 13.4146 66.1719 14.2509C66.4897 15.0873 66.9413 15.8065 67.5268 16.4087C68.1122 16.9941 68.8147 17.4457 69.6343 17.7635C70.4539 18.0813 71.3738 18.2402 72.3942 18.2402C73.4145 18.2402 74.3344 18.0813 75.154 17.7635C75.9903 17.4457 76.7012 16.9941 77.2866 16.4087C77.8721 15.8065 78.3237 15.0873 78.6415 14.2509C78.9593 13.4146 79.1182 12.4779 79.1182 11.4409C79.1182 10.4039 78.9593 9.46718 78.6415 8.63086C78.3237 7.77781 77.8721 7.05857 77.2866 6.47314C76.7012 5.87099 75.9903 5.41101 75.154 5.09321C74.3344 4.75868 73.4145 4.59141 72.3942 4.59141C71.3738 4.59141 70.4539 4.75868 69.6343 5.09321C68.8147 5.41101 68.1122 5.87099 67.5268 6.47314C66.9413 7.05857 66.4897 7.77781 66.1719 8.63086C65.8541 9.46718 65.6952 10.4039 65.6952 11.4409Z" fill="#FF6B00"/>
<path d="M81.4347 4.94267V17.914H84.9974V11.1147C84.9974 9.79334 85.2149 8.8483 85.6497 8.2796C86.0846 7.69417 86.7871 7.40146 87.7573 7.40146C88.6103 7.40146 89.2041 7.66908 89.5387 8.20433C89.8732 8.72285 90.0404 9.51736 90.0404 10.5879V17.914H93.6032V9.93552C93.6032 9.13265 93.5279 8.40505 93.3774 7.75272C93.2436 7.08366 93.001 6.52332 92.6498 6.07171C92.2985 5.60337 91.8134 5.24375 91.1946 4.99285C90.5924 4.72523 89.8146 4.59141 88.8612 4.59141C88.1085 4.59141 87.3726 4.76704 86.6533 5.1183C85.9341 5.45283 85.3487 5.99644 84.8971 6.74913H84.8218V4.94267H81.4347Z" fill="#FF6B00"/>
<path d="M105.038 10.0359H99.2427C99.2594 9.78498 99.3096 9.50063 99.3932 9.18283C99.4936 8.86503 99.6525 8.56395 99.8699 8.2796C100.104 7.99525 100.405 7.76108 100.773 7.57709C101.158 7.37637 101.635 7.27601 102.203 7.27601C103.073 7.27601 103.717 7.51018 104.135 7.97852C104.57 8.44686 104.871 9.13265 105.038 10.0359ZM99.2427 12.294H108.601C108.668 11.2904 108.584 10.3286 108.35 9.40864C108.116 8.48868 107.731 7.66908 107.196 6.94985C106.678 6.23061 106.009 5.66191 105.189 5.24375C104.369 4.80886 103.408 4.59141 102.304 4.59141C101.317 4.59141 100.414 4.76704 99.5939 5.1183C98.7911 5.46955 98.0969 5.95462 97.5115 6.5735C96.9261 7.17565 96.4744 7.89489 96.1566 8.73121C95.8388 9.56754 95.6799 10.4708 95.6799 11.4409C95.6799 12.4445 95.8305 13.3644 96.1316 14.2008C96.4494 15.0371 96.8926 15.7563 97.4613 16.3585C98.03 16.9606 98.7242 17.429 99.5437 17.7635C100.363 18.0813 101.283 18.2402 102.304 18.2402C103.776 18.2402 105.03 17.9057 106.067 17.2366C107.104 16.5676 107.874 15.4553 108.375 13.8997H105.239C105.122 14.3011 104.804 14.6858 104.286 15.0538C103.767 15.4051 103.148 15.5807 102.429 15.5807C101.425 15.5807 100.656 15.3214 100.121 14.8029C99.5856 14.2844 99.2929 13.4481 99.2427 12.294Z" fill="#FF6B00"/>
<path d="M121.36 2.9355V0H117.797V2.9355H121.36ZM117.797 4.94267V17.914H121.36V4.94267H117.797Z" fill="#FF6B00"/>
<path d="M126.925 13.699H123.538C123.572 14.5687 123.764 15.2964 124.115 15.8818C124.483 16.4505 124.943 16.9105 125.495 17.2617C126.064 17.613 126.708 17.8639 127.427 18.0144C128.146 18.1649 128.882 18.2402 129.635 18.2402C130.371 18.2402 131.09 18.1649 131.793 18.0144C132.512 17.8806 133.148 17.6381 133.7 17.2868C134.252 16.9355 134.695 16.4756 135.029 15.9069C135.381 15.3214 135.556 14.6022 135.556 13.7492C135.556 13.147 135.439 12.6452 135.205 12.2438C134.971 11.8256 134.661 11.4827 134.277 11.2151C133.892 10.9307 133.449 10.7049 132.947 10.5377C132.462 10.3704 131.96 10.2282 131.442 10.1111C130.94 9.99406 130.446 9.88534 129.961 9.78498C129.476 9.68462 129.041 9.5759 128.657 9.45881C128.289 9.325 127.988 9.15774 127.753 8.95702C127.519 8.7563 127.402 8.49704 127.402 8.17924C127.402 7.91162 127.469 7.70254 127.603 7.552C127.737 7.38473 127.896 7.25929 128.08 7.17565C128.28 7.09202 128.498 7.04184 128.732 7.02512C128.966 6.99166 129.183 6.97494 129.384 6.97494C130.02 6.97494 130.572 7.10038 131.04 7.35128C131.508 7.58545 131.768 8.04543 131.818 8.73121H135.205C135.138 7.92834 134.929 7.26765 134.578 6.74913C134.243 6.21388 133.817 5.78736 133.298 5.46955C132.78 5.15175 132.186 4.92594 131.517 4.79213C130.865 4.65832 130.187 4.59141 129.485 4.59141C128.782 4.59141 128.096 4.65832 127.427 4.79213C126.758 4.90922 126.156 5.12666 125.621 5.44446C125.086 5.74554 124.651 6.1637 124.316 6.69895C123.998 7.2342 123.839 7.91998 123.839 8.7563C123.839 9.325 123.956 9.81007 124.191 10.2115C124.425 10.5962 124.734 10.9224 125.119 11.19C125.504 11.4409 125.939 11.65 126.424 11.8172C126.925 11.9678 127.436 12.1016 127.954 12.2187C129.225 12.4863 130.212 12.7539 130.915 13.0216C131.634 13.2892 131.994 13.6906 131.994 14.2259C131.994 14.5437 131.918 14.8113 131.768 15.0287C131.617 15.2294 131.425 15.3967 131.191 15.5305C130.973 15.6476 130.722 15.7396 130.438 15.8065C130.17 15.8567 129.911 15.8818 129.66 15.8818C129.309 15.8818 128.966 15.84 128.632 15.7563C128.314 15.6727 128.029 15.5472 127.778 15.38C127.528 15.196 127.318 14.9702 127.151 14.7026C127.001 14.4182 126.925 14.0837 126.925 13.699Z" fill="#FF6B00"/>
<path d="M144.474 8.93193C144.524 8.09561 144.733 7.40146 145.101 6.84949C145.469 6.29751 145.937 5.85426 146.506 5.51973C147.075 5.1852 147.71 4.95103 148.413 4.81722C149.132 4.66668 149.851 4.59141 150.571 4.59141C151.223 4.59141 151.884 4.64159 152.553 4.74195C153.222 4.82558 153.832 5.00121 154.384 5.26884C154.936 5.53646 155.388 5.91281 155.739 6.39787C156.09 6.86621 156.266 7.49346 156.266 8.2796V15.0287C156.266 15.6142 156.3 16.1745 156.366 16.7097C156.433 17.245 156.55 17.6464 156.718 17.914H153.105C153.038 17.7133 152.979 17.5126 152.929 17.3119C152.896 17.0944 152.871 16.877 152.854 16.6596C152.285 17.245 151.616 17.6548 150.847 17.889C150.077 18.1231 149.291 18.2402 148.488 18.2402C147.869 18.2402 147.292 18.1649 146.757 18.0144C146.222 17.8639 145.753 17.6297 145.352 17.3119C144.951 16.9941 144.633 16.5927 144.399 16.1076C144.181 15.6225 144.072 15.0455 144.072 14.3764C144.072 13.6404 144.198 13.0383 144.449 12.5699C144.716 12.0849 145.051 11.7002 145.452 11.4158C145.871 11.1315 146.339 10.9224 146.857 10.7886C147.393 10.638 147.928 10.5209 148.463 10.4373C148.998 10.3537 149.525 10.2868 150.044 10.2366C150.562 10.1864 151.022 10.1111 151.424 10.0108C151.825 9.91043 152.143 9.76825 152.377 9.58426C152.611 9.38355 152.72 9.0992 152.703 8.73121C152.703 8.34651 152.636 8.04543 152.503 7.82799C152.386 7.59382 152.218 7.41819 152.001 7.3011C151.8 7.16729 151.558 7.08366 151.273 7.0502C151.006 7.00003 150.713 6.97494 150.395 6.97494C149.693 6.97494 149.141 7.12547 148.739 7.42655C148.338 7.72763 148.104 8.22942 148.037 8.93193H144.474ZM152.703 11.5663C152.553 11.7002 152.36 11.8089 152.126 11.8925C151.909 11.9594 151.666 12.018 151.399 12.0681C151.148 12.1183 150.88 12.1601 150.596 12.1936C150.311 12.227 150.027 12.2689 149.743 12.319C149.475 12.3692 149.207 12.4361 148.94 12.5198C148.689 12.6034 148.463 12.7205 148.262 12.871C148.078 13.0048 147.928 13.1805 147.811 13.3979C147.694 13.6153 147.635 13.8913 147.635 14.2259C147.635 14.5437 147.694 14.8113 147.811 15.0287C147.928 15.2462 148.087 15.4218 148.288 15.5556C148.488 15.6727 148.722 15.7563 148.99 15.8065C149.258 15.8567 149.534 15.8818 149.818 15.8818C150.521 15.8818 151.064 15.7647 151.449 15.5305C151.834 15.2964 152.118 15.0204 152.302 14.7026C152.486 14.368 152.595 14.0335 152.628 13.699C152.678 13.3644 152.703 13.0968 152.703 12.8961V11.5663Z" fill="#FF6B00"/>
<path d="M172.563 15.5807C171.994 15.5807 171.509 15.4636 171.108 15.2294C170.706 14.9953 170.38 14.6942 170.129 14.3262C169.895 13.9415 169.719 13.4983 169.602 12.9965C169.502 12.4947 169.452 11.9845 169.452 11.466C169.452 10.9307 169.502 10.4122 169.602 9.91043C169.703 9.40864 169.87 8.96538 170.104 8.58068C170.355 8.19597 170.673 7.88653 171.057 7.65236C171.459 7.40146 171.952 7.27601 172.538 7.27601C173.106 7.27601 173.583 7.40146 173.968 7.65236C174.369 7.88653 174.695 8.20433 174.946 8.60577C175.197 8.99047 175.373 9.43373 175.473 9.93552C175.59 10.4373 175.649 10.9475 175.649 11.466C175.649 11.9845 175.599 12.4947 175.498 12.9965C175.398 13.4983 175.222 13.9415 174.971 14.3262C174.737 14.6942 174.419 14.9953 174.018 15.2294C173.633 15.4636 173.148 15.5807 172.563 15.5807ZM166.014 4.94267V22.4553H169.577V16.3083H169.627C170.062 16.9439 170.614 17.429 171.283 17.7635C171.969 18.0813 172.713 18.2402 173.516 18.2402C174.47 18.2402 175.298 18.0562 176 17.6882C176.719 17.3203 177.313 16.8268 177.781 16.2079C178.267 15.5891 178.626 14.8782 178.86 14.0753C179.094 13.2724 179.212 12.4361 179.212 11.5663C179.212 10.6464 179.094 9.76825 178.86 8.93193C178.626 8.07888 178.267 7.33455 177.781 6.69895C177.296 6.06334 176.686 5.55319 175.95 5.16848C175.214 4.78377 174.336 4.59141 173.315 4.59141C172.513 4.59141 171.777 4.75032 171.108 5.06812C170.439 5.38592 169.887 5.89608 169.452 6.59859H169.401V4.94267H166.014Z" fill="#FF6B00"/>
<path d="M181.453 0V17.914H185.016V0H181.453Z" fill="#FF6B00"/>
<path d="M187.67 8.93193C187.72 8.09561 187.93 7.40146 188.298 6.84949C188.666 6.29751 189.134 5.85426 189.703 5.51973C190.271 5.1852 190.907 4.95103 191.609 4.81722C192.329 4.66668 193.048 4.59141 193.767 4.59141C194.419 4.59141 195.08 4.64159 195.749 4.74195C196.418 4.82558 197.029 5.00121 197.581 5.26884C198.133 5.53646 198.584 5.91281 198.936 6.39787C199.287 6.86621 199.462 7.49346 199.462 8.2796V15.0287C199.462 15.6142 199.496 16.1745 199.563 16.7097C199.63 17.245 199.747 17.6464 199.914 17.914H196.301C196.234 17.7133 196.176 17.5126 196.126 17.3119C196.092 17.0944 196.067 16.877 196.05 16.6596C195.482 17.245 194.813 17.6548 194.043 17.889C193.274 18.1231 192.488 18.2402 191.685 18.2402C191.066 18.2402 190.489 18.1649 189.953 18.0144C189.418 17.8639 188.95 17.6297 188.548 17.3119C188.147 16.9941 187.829 16.5927 187.595 16.1076C187.378 15.6225 187.269 15.0455 187.269 14.3764C187.269 13.6404 187.394 13.0383 187.645 12.5699C187.913 12.0849 188.247 11.7002 188.649 11.4158C189.067 11.1315 189.535 10.9224 190.054 10.7886C190.589 10.638 191.124 10.5209 191.66 10.4373C192.195 10.3537 192.722 10.2868 193.24 10.2366C193.759 10.1864 194.219 10.1111 194.62 10.0108C195.022 9.91043 195.339 9.76825 195.574 9.58426C195.808 9.38355 195.916 9.0992 195.9 8.73121C195.9 8.34651 195.833 8.04543 195.699 7.82799C195.582 7.59382 195.415 7.41819 195.197 7.3011C194.997 7.16729 194.754 7.08366 194.47 7.0502C194.202 7.00003 193.909 6.97494 193.591 6.97494C192.889 6.97494 192.337 7.12547 191.936 7.42655C191.534 7.72763 191.3 8.22942 191.233 8.93193H187.67ZM195.9 11.5663C195.749 11.7002 195.557 11.8089 195.323 11.8925C195.105 11.9594 194.863 12.018 194.595 12.0681C194.344 12.1183 194.077 12.1601 193.792 12.1936C193.508 12.227 193.224 12.2689 192.939 12.319C192.672 12.3692 192.404 12.4361 192.136 12.5198C191.885 12.6034 191.66 12.7205 191.459 12.871C191.275 13.0048 191.124 13.1805 191.007 13.3979C190.89 13.6153 190.832 13.8913 190.832 14.2259C190.832 14.5437 190.89 14.8113 191.007 15.0287C191.124 15.2462 191.283 15.4218 191.484 15.5556C191.685 15.6727 191.919 15.7563 192.186 15.8065C192.454 15.8567 192.73 15.8818 193.014 15.8818C193.717 15.8818 194.261 15.7647 194.645 15.5305C195.03 15.2964 195.314 15.0204 195.498 14.7026C195.682 14.368 195.791 14.0335 195.824 13.699C195.875 13.3644 195.9 13.0968 195.9 12.8961V11.5663Z" fill="#FF6B00"/>
<path d="M208.626 19.5198L214.045 4.94267H210.357L207.522 13.8244H207.472L204.536 4.94267H200.748L205.289 17.1112C205.389 17.3621 205.439 17.6297 205.439 17.914C205.439 18.2988 205.322 18.65 205.088 18.9678C204.871 19.2856 204.528 19.4696 204.059 19.5198C203.708 19.5365 203.357 19.5281 203.006 19.4947C202.654 19.4612 202.311 19.4278 201.977 19.3943V22.3298C202.345 22.3633 202.705 22.3884 203.056 22.4051C203.424 22.4385 203.792 22.4553 204.16 22.4553C205.381 22.4553 206.334 22.2295 207.02 21.7779C207.706 21.3262 208.241 20.5735 208.626 19.5198Z" fill="#FF6B00"/>
<path d="M223.969 10.0359H218.174C218.19 9.78498 218.241 9.50063 218.324 9.18283C218.425 8.86503 218.583 8.56395 218.801 8.2796C219.035 7.99525 219.336 7.76108 219.704 7.57709C220.089 7.37637 220.566 7.27601 221.134 7.27601C222.004 7.27601 222.648 7.51018 223.066 7.97852C223.501 8.44686 223.802 9.13265 223.969 10.0359ZM218.174 12.294H227.532C227.599 11.2904 227.515 10.3286 227.281 9.40864C227.047 8.48868 226.662 7.66908 226.127 6.94985C225.609 6.23061 224.94 5.66191 224.12 5.24375C223.3 4.80886 222.339 4.59141 221.235 4.59141C220.248 4.59141 219.345 4.76704 218.525 5.1183C217.722 5.46955 217.028 5.95462 216.443 6.5735C215.857 7.17565 215.405 7.89489 215.088 8.73121C214.77 9.56754 214.611 10.4708 214.611 11.4409C214.611 12.4445 214.761 13.3644 215.063 14.2008C215.38 15.0371 215.824 15.7563 216.392 16.3585C216.961 16.9606 217.655 17.429 218.475 17.7635C219.294 18.0813 220.214 18.2402 221.235 18.2402C222.707 18.2402 223.961 17.9057 224.998 17.2366C226.035 16.5676 226.805 15.4553 227.306 13.8997H224.17C224.053 14.3011 223.735 14.6858 223.217 15.0538C222.698 15.4051 222.079 15.5807 221.36 15.5807C220.356 15.5807 219.587 15.3214 219.052 14.8029C218.517 14.2844 218.224 13.4481 218.174 12.294Z" fill="#FF6B00"/>
<path d="M229.645 4.94267V17.914H233.208V12.0681C233.208 11.4827 233.266 10.9391 233.384 10.4373C233.501 9.93552 233.693 9.50063 233.961 9.13265C234.245 8.74794 234.613 8.44686 235.065 8.22942C235.516 8.01198 236.068 7.90325 236.72 7.90325C236.938 7.90325 237.164 7.91998 237.398 7.95343C237.632 7.97016 237.833 7.99525 238 8.0287V4.71686C237.716 4.63323 237.456 4.59141 237.222 4.59141C236.771 4.59141 236.336 4.65832 235.918 4.79213C235.499 4.92594 235.106 5.1183 234.738 5.3692C234.37 5.60337 234.044 5.89608 233.76 6.24733C233.476 6.58186 233.25 6.94985 233.082 7.35128H233.032V4.94267H229.645Z" fill="#FF6B00"/>
</svg>
