<svg width="39" height="42" viewBox="0 0 39 42" fill="none" xmlns="http://www.w3.org/2000/svg">
<path fill-rule="evenodd" clip-rule="evenodd" d="M18.5019 10.2106L10.3497 17.2106C10.1291 17.4001 10 17.6914 10 18V29C10 30.6569 11.2166 32 12.7174 32H16.3406H21.7754H25.3986C26.8993 32 28.1159 30.6569 28.1159 29V18C28.1159 17.6914 27.9869 17.4001 27.7663 17.2106L19.6141 10.2106C19.287 9.92978 18.829 9.92978 18.5019 10.2106ZM22.6812 30H25.3986C25.8988 30 26.3044 29.5523 26.3044 29V18.489L19.058 12.266L11.8116 18.488V29C11.8116 29.5128 12.1613 29.9355 12.6118 29.9933L12.7174 30H15.4348V21C15.4348 20.4872 15.7845 20.0645 16.235 20.0067L16.3406 20H21.7754C22.2399 20 22.6228 20.386 22.6751 20.8834L22.6812 21V30ZM17.2464 30V22H20.8696V30H17.2464Z" fill="#E7440E"/>
</svg>
