<svg width="48" height="48" viewBox="0 0 48 48" fill="none" xmlns="http://www.w3.org/2000/svg">
<path d="M13.224 40.3867L13.9479 40.8149C16.9898 42.6164 20.4773 43.5692 24.0335 43.5711H24.0413C34.9629 43.5711 43.8519 34.702 43.8566 23.8015C43.8582 18.5188 41.7994 13.5516 38.058 9.81501C34.3165 6.07857 29.3418 4.01955 24.0487 4.01738C13.1185 4.01738 4.22967 12.8852 4.22533 23.7854C4.22384 27.5207 5.27103 31.1585 7.25476 34.3063L7.7264 35.054L5.72404 42.3491L13.224 40.3867ZM0 48L3.3823 35.675C1.29615 32.0679 0.198555 27.9759 0.200156 23.7838C0.205414 10.6695 10.8999 -3.47599e-05 24.0413 -3.47599e-05C30.4185 0.00270354 36.4042 2.47982 40.9057 6.97535C45.4065 11.4712 47.8843 17.4473 47.8821 23.8031C47.8765 36.9167 37.1806 47.5882 24.0413 47.5882C24.0404 47.5882 24.0419 47.5882 24.0413 47.5882H24.031C20.0413 47.5866 16.1206 46.5879 12.6385 44.6927L0 48Z" fill="white"/>
</svg>
