<svg width="46" height="46" viewBox="0 0 46 46" fill="none" xmlns="http://www.w3.org/2000/svg">
<path d="M0.191316 22.7929C0.190067 26.8095 1.24164 30.7314 3.2414 34.1883L0 46L12.1117 42.8306C15.4487 44.6456 19.2057 45.6034 23.0294 45.6047H23.0396C35.631 45.6047 45.8808 35.3788 45.886 22.8105C45.8885 16.7201 43.5142 10.9934 39.2002 6.68503C34.887 2.37656 29.1505 0.00269147 23.0387 -2.68381e-05C10.4457 -2.68381e-05 0.196422 10.2249 0.191316 22.7929ZM23.0396 45.6047C23.0397 45.6047 23.0397 45.6047 23.0397 45.6047C23.0397 45.6047 23.0397 45.6047 23.0396 45.6047ZM23.0396 45.6047C23.0393 45.6047 23.039 45.6047 23.0396 45.6047V45.6047Z" fill="url(#paint0_linear_699_2833)"/>
<defs>
<linearGradient id="paint0_linear_699_2833" x1="22.943" y1="46" x2="22.943" y2="-2.70167e-05" gradientUnits="userSpaceOnUse">
<stop stop-color="#20B038"/>
<stop offset="1" stop-color="#60D66A"/>
</linearGradient>
</defs>
</svg>
