<svg width="48" height="48" viewBox="0 0 48 48" fill="none" xmlns="http://www.w3.org/2000/svg">
<path d="M0.200156 23.7838C0.19867 27.9759 1.29616 32.068 3.3823 35.6751L0 48L12.6385 44.6927C16.1206 46.5879 20.0412 47.5867 24.031 47.5882H24.0413C37.1806 47.5882 47.8765 36.9168 47.8821 23.8031C47.8843 17.4473 45.4067 11.4712 40.9057 6.97546C36.4042 2.47982 30.4185 0.00281555 24.0413 -3.47599e-05C10.8999 -3.47599e-05 0.205415 10.6696 0.200156 23.7838ZM7.72651 35.054L7.25476 34.3063C5.27103 31.1585 4.22385 27.5207 4.22545 23.7854C4.22968 12.8852 13.1185 4.01738 24.0487 4.01738C29.3418 4.01955 34.3165 6.07857 38.0582 9.81513C41.7994 13.5516 43.8582 18.5188 43.8566 23.8015C43.852 34.702 34.9629 43.5711 24.0413 43.5711H24.0335C20.4773 43.5693 16.9897 42.6164 13.9479 40.8149L13.224 40.3868L5.72416 42.3491L7.72651 35.054ZM24.0413 47.5882C24.0414 47.5882 24.0414 47.5882 24.0414 47.5882C24.0414 47.5882 24.0414 47.5882 24.0413 47.5882ZM24.0413 47.5882C24.0411 47.5882 24.0407 47.5882 24.0413 47.5882V47.5882Z" fill="url(#paint0_linear_699_2847)"/>
<defs>
<linearGradient id="paint0_linear_699_2847" x1="23.9411" y1="48" x2="23.9411" y2="-1.77203e-05" gradientUnits="userSpaceOnUse">
<stop stop-color="#F9F9F9"/>
<stop offset="1" stop-color="white"/>
</linearGradient>
</defs>
</svg>
