<svg width="24" height="23" viewBox="0 0 24 23" fill="none" xmlns="http://www.w3.org/2000/svg">
<path fill-rule="evenodd" clip-rule="evenodd" d="M6.10183 1.03202C5.65947 0.0506979 5.19388 0.0310217 4.77305 0.013834C4.42893 -0.000867138 4.03484 3.637e-05 3.64143 3.637e-05C3.24779 3.637e-05 2.60793 0.147609 2.06699 0.73733C1.5256 1.32705 0 2.75255 0 5.65185C0 8.55149 2.11617 11.3531 2.41111 11.7466C2.7064 12.1396 6.49615 18.2794 12.498 20.6416C17.4862 22.6046 18.5012 22.2141 19.5839 22.116C20.6665 22.0177 23.0774 20.6907 23.5695 19.3146C24.0616 17.9387 24.0616 16.7594 23.914 16.5129C23.7663 16.2673 23.3727 16.1199 22.7821 15.8252C22.1916 15.5305 19.2886 14.1047 18.7472 13.9083C18.2059 13.7119 17.8121 13.6136 17.4185 14.2035C17.0248 14.7929 15.8938 16.1199 15.5492 16.5129C15.2048 16.9067 14.8603 16.9558 14.2697 16.6611C13.6792 16.3655 11.7774 15.7439 9.52129 13.7364C7.76589 12.1745 6.58079 10.2456 6.23622 9.65562C5.89176 9.06624 6.19939 8.74701 6.49558 8.45322C6.76073 8.18918 7.08615 7.76535 7.38144 7.42124C7.67604 7.07713 7.77451 6.83152 7.97133 6.43856C8.16814 6.04504 8.06979 5.70093 7.92215 5.40624C7.77451 5.11155 6.62691 2.19721 6.10183 1.03202Z" fill="white"/>
</svg>
