<svg width="53" height="51" viewBox="0 0 53 51" fill="none" xmlns="http://www.w3.org/2000/svg">
<path d="M41.3274 0H11.6726C5.22601 0 0 5.02881 0 11.2321V39.7679C0 45.9712 5.22601 51 11.6726 51H41.3274C47.774 51 53 45.9712 53 39.7679V11.2321C53 5.02881 47.774 0 41.3274 0Z" fill="url(#paint0_linear_699_2801)"/>
<path d="M26.4999 8.82861C21.3407 8.82865 16.3927 10.4713 12.7446 13.3953C9.09643 16.3193 7.04691 20.2851 7.04688 24.4203C7.05158 27.11 7.92433 29.753 9.58032 32.0924C11.2363 34.4318 13.6192 36.3881 16.4974 37.7711C15.7309 39.4225 14.5811 40.9711 13.0959 42.3527C15.9761 41.8662 18.6799 40.8441 20.9966 39.3661C22.783 39.7915 24.6364 40.009 26.4999 40.0119C31.6592 40.0119 36.6072 38.3692 40.2553 35.4452C43.9035 32.5212 45.953 28.5554 45.953 24.4203C45.953 20.2851 43.9035 16.3193 40.2553 13.3953C36.6072 10.4713 31.6592 8.82865 26.4999 8.82861Z" fill="white"/>
<defs>
<linearGradient id="paint0_linear_699_2801" x1="26.9206" y1="47.6146" x2="26.9206" y2="6.32934" gradientUnits="userSpaceOnUse">
<stop stop-color="#0CBD2A"/>
<stop offset="1" stop-color="#5BF675"/>
</linearGradient>
</defs>
</svg>
