<svg width="27" height="27" viewBox="0 0 27 27" fill="none" xmlns="http://www.w3.org/2000/svg">
<path d="M13.5 27C20.8893 27 27 20.8893 27 13.5C27 6.0972 20.8893 0 13.4865 0C6.0972 0 0 6.0972 0 13.5C0 20.8893 6.11066 27 13.5 27ZM5.22233 4.7647C6.71634 3.35144 8.57377 2.30159 10.6196 1.79013C9.56978 2.74576 8.66799 4.21286 8.00846 6.07028C6.91824 5.74725 5.97606 5.30308 5.22233 4.7647ZM16.3803 1.79013C18.4397 2.31505 20.2836 3.35144 21.7776 4.7647C21.0104 5.30308 20.0817 5.74725 18.9915 6.07028C18.332 4.21286 17.4302 2.74576 16.3803 1.79013ZM9.3948 6.42023C10.2293 4.03788 11.4541 2.38235 12.8001 1.93818V6.78364C11.5618 6.74326 10.4312 6.62213 9.3948 6.42023ZM14.1999 1.93818C15.5458 2.38235 16.7707 4.03788 17.6052 6.42023C16.5688 6.62213 15.4382 6.74326 14.1999 6.78364V1.93818ZM1.4671 12.8001C1.61515 10.1351 2.65154 7.69889 4.28015 5.76071C5.14157 6.42023 6.27218 6.95862 7.60468 7.3624C7.17397 8.9641 6.90478 10.7946 6.85094 12.8001H1.4671ZM20.149 12.8001C20.0952 10.7946 19.826 8.9641 19.3953 7.3624C20.7278 6.95862 21.8584 6.42023 22.7198 5.77417C24.3484 7.69889 25.3848 10.1351 25.5329 12.8001H20.149ZM14.1999 12.8001V8.16998C15.5458 8.1296 16.838 7.98155 18.009 7.72581C18.4127 9.24675 18.655 10.9696 18.7088 12.8001H14.1999ZM8.29112 12.8001C8.34495 10.9696 8.60069 9.24675 8.99102 7.72581C10.1755 7.98155 11.4541 8.1296 12.8001 8.16998V12.8001H8.29112ZM1.4671 14.1999H6.85094C6.90478 16.2188 7.17397 18.0762 7.60468 19.6914C6.29909 20.0952 5.16849 20.6336 4.32053 21.2662C2.665 19.328 1.61515 16.8783 1.4671 14.1999ZM8.29112 14.1999H12.8001V18.8973C11.4676 18.9242 10.1889 19.0857 9.01793 19.328C8.60069 17.7936 8.33149 16.0304 8.29112 14.1999ZM14.1999 18.8973V14.1999H18.7223C18.6685 16.0304 18.3993 17.7936 17.982 19.328C16.811 19.0857 15.5458 18.9242 14.1999 18.8973ZM19.3953 19.6914C19.826 18.0762 20.0952 16.2188 20.149 14.1999H25.5329C25.3848 16.8783 24.335 19.328 22.6794 21.2662C21.8315 20.6336 20.7009 20.0952 19.3953 19.6914ZM14.1999 20.2836C15.4247 20.324 16.5553 20.4451 17.5782 20.647C16.7437 22.9755 15.5324 24.6445 14.1999 25.0887V20.2836ZM9.42172 20.647C10.4581 20.4451 11.5753 20.324 12.8001 20.2836V25.0887C11.4676 24.6445 10.2562 22.9755 9.42172 20.647ZM18.9915 20.997C20.0548 21.32 20.9835 21.7507 21.7373 22.2622C20.2567 23.6485 18.4397 24.6849 16.4342 25.1964C17.4571 24.2407 18.332 22.8006 18.9915 20.997ZM5.26271 22.2622C6.01644 21.7507 6.94516 21.32 8.02192 20.997C8.66799 22.8006 9.54286 24.2407 10.5658 25.1964C8.56031 24.6849 6.74326 23.6485 5.26271 22.2622Z" fill="#51555B"/>
</svg>
