<svg width="53" height="52" viewBox="0 0 53 52" fill="none" xmlns="http://www.w3.org/2000/svg">
<g clip-path="url(#clip0_699_2804)">
<path d="M52.9845 0H0.0155273C0.00695183 0 0 0.00682066 0 0.0152344V51.9848C0 51.9932 0.00695183 52 0.0155273 52H52.9845C52.993 52 53 51.9932 53 51.9848V0.0152344C53 0.00682066 52.993 0 52.9845 0Z" fill="white"/>
<path d="M16.3555 39.7109V25.2891L7.86719 18.8906V36.6641C7.86719 38.6953 8.90234 39.7109 10.9727 39.7109" fill="#4285F4"/>
<path d="M15.9414 25.1875L26.5 33.0078L37.0586 25.1875V15.2344L26.5 23.0547L15.9414 15.2344" fill="#EA4335"/>
<path d="M36.6445 39.7109V25.2891L45.1328 18.8906V36.6641C45.1328 38.6953 44.0977 39.7109 42.0273 39.7109" fill="#34A853"/>
<path d="M7.86719 19.0938L16.3555 25.4922V15.5391L13.25 13.2032C10.4551 11.0703 7.86719 13.2032 7.86719 15.8438" fill="#C5221F"/>
<path d="M45.1328 19.0938L36.6445 25.4922V15.5391L39.75 13.2032C42.5449 11.0703 45.1328 13.2032 45.1328 15.8438" fill="#FBBC04"/>
</g>
<defs>
<clipPath id="clip0_699_2804">
<rect width="53" height="52" fill="white"/>
</clipPath>
</defs>
</svg>
