<svg width="29" height="19" viewBox="0 0 29 19" fill="none" xmlns="http://www.w3.org/2000/svg">
<path d="M0 18.9924C3.55211 12.7828 6.94516 6.83408 10.2852 0.937555C10.7093 0.207012 11.3455 0.259194 12.0348 0.154831C16.3821 -0.419168 19.5631 0.467921 21.4187 5.11209C23.3273 9.86062 26.2962 14.1917 29 18.9924C27.0384 18.9924 25.4479 18.9402 23.9105 18.9924C22.8501 19.0446 22.2139 18.6271 21.9488 17.6879C21.3657 15.8615 20.0402 15.5484 18.2907 15.6528C16.011 15.7571 13.6783 15.8093 11.3986 15.6528C9.38393 15.5484 7.74041 15.705 7.0512 17.9488C6.83913 18.7315 6.30897 18.9924 5.4607 18.9924C3.81719 18.9924 2.06764 18.9924 0 18.9924ZM18.6618 11.6348C17.2834 9.13008 16.011 6.7819 14.5795 4.225C13.2011 6.88627 11.9817 9.18226 10.6563 11.6348C13.4662 11.6348 15.905 11.6348 18.6618 11.6348Z" fill="white"/>
</svg>
