<svg width="274" height="37" viewBox="0 0 274 37" fill="none" xmlns="http://www.w3.org/2000/svg">
<path d="M173.9 9.76971C173.9 18.0697 173.6 25.2697 174 32.4697C174.3 37.6697 171 36.3697 168.3 36.4697C165.5 36.5697 162.8 37.1697 163 32.4697C163.4 23.1697 163.2 13.8697 163.1 4.56972C163 1.46972 163.8 0.669715 167.1 0.269716C176.7 -0.930284 183.8 1.76971 189 10.4697C192.3 16.1697 197.1 20.9697 201.3 26.1697C201.5 26.3697 201.9 26.4697 202.5 26.7697C202.5 19.8697 202.4 13.2697 202.6 6.56972C202.6 4.56972 201.3 1.56972 203.6 0.769715C206.1 -0.130284 209.2 0.369719 212 0.569719C213.4 0.669719 213 2.06971 213 2.96971C213 13.2697 212.9 23.5697 213.1 33.8697C213.1 36.1697 212.3 36.6697 210.2 36.5697C206.4 36.4697 202.5 36.3697 198.7 36.5697C196 36.7697 194.4 35.6697 192.9 33.6697C186.9 25.9697 180.7 18.3697 173.9 9.76971Z" fill="white"/>
<path d="M100.8 22.8698C104.4 25.2698 106.4 31.5698 104.9 35.2698C103.9 37.5698 101.8 36.2698 100.2 36.4698C96.3001 36.9698 93.0001 36.8698 93.9001 31.1698C94.3001 28.9698 92.5001 27.4698 90.2001 27.3698C84.5001 27.2698 78.9001 27.3698 73.2001 27.3698C69.5001 27.3698 70.9001 30.2698 71.1001 31.6698C72.1001 37.6698 68.0001 36.1698 64.8001 36.5698C60.9001 36.9698 59.8001 35.6698 59.9001 31.7698C60.2001 22.7698 60.1001 13.7698 59.9001 4.86983C59.8001 1.56983 60.4001 0.269832 64.1001 0.369832C73.7001 0.669832 83.4001 0.469823 93.1001 0.469823C97.9001 0.469823 103 0.669826 104.5 6.26982C106.2 11.9698 106.9 18.0698 100.8 22.8698ZM82.4001 9.36983C79.6001 9.36983 76.7001 9.56983 74.0001 9.36983C69.8001 8.96983 71.1001 11.9698 71.1001 13.9698C71.1001 15.8698 69.7001 18.8698 73.9001 18.5698C79.0001 18.2698 84.2001 18.4698 89.3001 18.5698C92.4001 18.6698 94.5001 17.9698 94.5001 14.2698C94.5001 10.6698 93.0001 9.16983 89.4001 9.36983C87.1001 9.56983 84.7001 9.36983 82.4001 9.36983Z" fill="white"/>
<path d="M134.9 36.4698C129.2 36.4698 123.6 36.3698 117.9 36.4698C115.6 36.4698 114.3 36.2698 114.4 33.2698C114.6 23.2698 114.5 13.3698 114.4 3.3698C114.4 0.969798 115.1 0.269793 117.5 0.269793C128.8 0.369793 140.1 0.469793 151.4 0.269793C155 0.169793 154.5 2.2698 154.5 4.3698C154.5 6.5698 155 8.66979 151.4 8.56979C143.9 8.36979 136.4 8.56979 128.9 8.46979C126.4 8.46979 124.9 8.66979 124.9 11.8698C125 14.9698 126.6 14.8698 128.7 14.8698C135.5 14.8698 142.3 14.9698 149.2 14.7698C152.1 14.6698 152.9 15.7698 152.8 18.4698C152.8 21.1698 152.3 22.3698 149.3 22.2698C142.3 22.0698 135.3 22.2698 128.3 22.1698C125.8 22.1698 124.9 22.8698 124.9 25.4698C124.9 28.1698 126.1 28.3698 128.2 28.3698C136 28.2698 143.8 28.5698 151.6 28.2698C155.6 28.0698 154.7 30.4698 154.8 32.6698C154.9 34.9698 155 36.7698 151.6 36.5698C146.2 36.2698 140.5 36.4698 134.9 36.4698Z" fill="white"/>
<path d="M274 36.4697C270.6 36.4697 267.8 36.2697 265 36.4697C262.6 36.6697 261.1 35.8697 260.4 33.6697C259.4 30.5697 257.3 29.9697 254.3 30.0697C250 30.2697 245.6 30.2697 241.3 30.0697C237.3 29.8697 233.7 30.0697 232.4 34.7697C232 36.0697 231 36.3697 229.7 36.3697C226.4 36.2697 223.2 36.3697 219.1 36.3697C225.9 24.3697 232.3 13.0697 238.7 1.66975C239.6 0.0697547 240.8 0.369745 242 0.269745C254 -0.330254 254 -0.330254 259.7 10.2697C264.4 18.8697 269.1 27.4697 274 36.4697ZM246.8 8.16975C244.5 12.3697 242.7 16.0697 240.6 19.5697C239.5 21.5697 239.6 22.5697 242.2 22.4697C246.1 22.3697 249.9 22.4697 254.4 22.4697C251.8 17.4697 249.5 13.1697 246.8 8.16975Z" fill="white"/>
<path d="M0 36.4699C6.7 24.5699 13.1 13.17 19.4 1.86996C20.2 0.469956 21.4 0.569956 22.7 0.369956C30.9 -0.730043 36.9 0.969957 40.4 9.86995C44 18.9699 49.6 27.2699 54.7 36.4699C51 36.4699 48 36.3699 45.1 36.4699C43.1 36.5699 41.9 35.7699 41.4 33.9699C40.3 30.4699 37.8 29.8699 34.5 30.0699C30.2 30.2699 25.8 30.3699 21.5 30.0699C17.7 29.8699 14.6 30.1699 13.3 34.4699C12.9 35.9699 11.9 36.4699 10.3 36.4699C7.2 36.4699 3.9 36.4699 0 36.4699ZM35.2 22.3699C32.6 17.5699 30.2 13.07 27.5 8.16996C24.9 13.27 22.6 17.6699 20.1 22.3699C25.4 22.3699 30 22.3699 35.2 22.3699Z" fill="white"/>
</svg>
