<svg width="46" height="45" viewBox="0 0 46 45" fill="none" xmlns="http://www.w3.org/2000/svg">
<path d="M23 0C10.0451 0 0 9.22425 0 21.6954C0 28.2139 2.74533 33.8468 7.21123 37.7333C7.39997 37.894 7.5533 38.0902 7.66201 38.31C7.77072 38.5298 7.83256 38.7687 7.84379 39.0124L7.97031 42.985C7.98051 43.2775 8.06409 43.5631 8.21377 43.817C8.36346 44.0709 8.57471 44.2854 8.82914 44.4418C9.08357 44.5982 9.37346 44.6918 9.67359 44.7144C9.97372 44.737 10.275 44.688 10.5512 44.5716L15.1056 42.6037C15.496 42.4356 15.9345 42.4052 16.3455 42.5176C18.5138 43.0939 20.7521 43.3834 23 43.3786C35.9549 43.3786 46.0001 34.1543 46.0001 21.6954C46.0001 9.23654 35.9549 0 23 0Z" fill="url(#paint0_linear_699_2861)"/>
<path d="M9.18516 28.0294L15.9409 17.6121C16.1952 17.2191 16.5305 16.8816 16.9257 16.6209C17.3209 16.3603 17.7674 16.1822 18.237 16.0978C18.7066 16.0134 19.1892 16.0246 19.6541 16.1308C20.119 16.2369 20.5563 16.4356 20.9382 16.7143L26.315 20.6377C26.5536 20.8075 26.8416 20.8991 27.1373 20.8991C27.433 20.8991 27.7211 20.8075 27.9597 20.6377L35.2341 15.2753C36.1956 14.562 37.4608 15.6935 36.8156 16.6897L30.0598 27.1069C29.8055 27.4981 29.4707 27.834 29.0766 28.0935C28.6824 28.353 28.2373 28.5304 27.7693 28.6147C27.3012 28.699 26.8203 28.6884 26.3567 28.5834C25.893 28.4784 25.4567 28.2814 25.0752 28.0048L19.6984 24.0814C19.4575 23.9058 19.1645 23.8108 18.8634 23.8108C18.5623 23.8108 18.2693 23.9058 18.0284 24.0814L10.7666 29.4437C9.80507 30.1571 8.53994 29.0256 9.18516 28.0294Z" fill="white"/>
<defs>
<linearGradient id="paint0_linear_699_2861" x1="23" y1="0" x2="23" y2="44.6453" gradientUnits="userSpaceOnUse">
<stop stop-color="#00B2FF"/>
<stop offset="1" stop-color="#006AFF"/>
</linearGradient>
</defs>
</svg>
