<svg width="24" height="24" viewBox="0 0 24 24" fill="none" xmlns="http://www.w3.org/2000/svg">
<path d="M5.31888 14.5034L4.48348 17.622L1.4301 17.6866C0.517591 15.9941 0 14.0577 0 11.9999C0 10.01 0.483935 8.13352 1.34174 6.48123H1.3424L4.06076 6.9796L5.25157 9.68165C5.00234 10.4083 4.86649 11.1883 4.86649 11.9999C4.86659 12.8808 5.02615 13.7247 5.31888 14.5034Z" fill="#FBBB00"/>
<path d="M23.7902 9.75816C23.928 10.4841 23.9999 11.2337 23.9999 11.9999C23.9999 12.859 23.9096 13.697 23.7375 14.5054C23.1533 17.2562 21.627 19.6581 19.5125 21.3579L19.5118 21.3572L16.0879 21.1825L15.6033 18.1575C17.0064 17.3346 18.1029 16.0469 18.6805 14.5054H12.2638V9.75816H18.7741H23.7902Z" fill="#518EF8"/>
<path d="M19.5118 21.3574L19.5124 21.3581C17.456 23.011 14.8437 24 12 24C7.43009 24 3.45694 21.4458 1.43012 17.6869L5.3189 14.5036C6.33228 17.2082 8.94129 19.1335 12 19.1335C13.3147 19.1335 14.5463 18.7781 15.6032 18.1576L19.5118 21.3574Z" fill="#28B446"/>
<path d="M19.6595 2.76261L15.7721 5.94522C14.6782 5.26151 13.3852 4.86654 12 4.86654C8.87208 4.86654 6.21428 6.88014 5.25166 9.6817L1.34245 6.48128H1.34179C3.33894 2.63075 7.3622 0 12 0C14.9116 0 17.5813 1.03715 19.6595 2.76261Z" fill="#F14336"/>
</svg>
