<svg width="97" height="97" viewBox="0 0 97 97" fill="none" xmlns="http://www.w3.org/2000/svg">
<g filter="url(#filter0_dddddd_46_1225)">
<path d="M40.4108 14.2834C40.9998 14.1759 41.9101 13.961 42.4991 13.7998C42.8739 13.8535 43.2488 13.7998 43.57 13.6386C43.9449 13.4236 44.3197 13.3699 44.7481 13.3699C45.5513 13.3162 46.3545 13.3162 47.1577 13.3162C47.5861 13.3162 48.3357 13.3699 48.3893 13.5311C49.1389 16.7013 51.9769 15.5729 53.744 15.8416C68.8442 18.367 80.4639 30.9405 81.3742 46.2006C81.4278 47.2753 81.2671 48.1888 82.9271 48.4037C84.1051 48.5111 83.5696 49.9082 83.5161 50.6605C82.7664 60.7622 78.5898 69.1445 70.7719 75.6462C63.8644 81.3956 55.7252 83.9211 46.7829 83.6524C45.3906 83.5987 43.3023 84.2435 43.3558 81.5568C43.3558 81.0195 42.7133 81.127 42.2849 81.0195C40.5714 80.5359 38.9114 79.9986 37.1979 79.515C36.7696 79.4075 36.0735 79.2463 35.9664 79.4075C35.3238 80.3747 34.7348 81.0732 33.4497 80.321C31.3613 79.1388 27.7201 78.1179 27.7737 76.3985C27.8272 73.6044 26.1137 72.7984 24.8286 71.4013C23.8647 70.3267 23.1686 68.4998 21.0267 69.6819C20.5448 69.9505 20.1164 69.1983 19.8487 68.7684C18.8849 67.2639 17.9746 65.7594 17.1178 64.2011C16.6359 63.2877 15.6185 62.213 17.4391 61.4608C18.1888 61.1384 17.6533 60.3324 17.5462 59.795C17.1714 58.3442 16.743 56.8935 16.3146 55.4427C16.0469 54.5292 16.1004 53.4546 14.6011 53.6158C13.6908 53.7232 13.7444 52.8098 13.6908 52.2724C13.5302 51.1978 13.4231 50.1231 13.316 48.9947C13.316 48.8873 13.316 48.7261 13.316 48.6186C13.9585 35.4003 19.4739 25.0836 30.8258 18.0984C33.1284 16.7013 35.7522 16.0028 38.1082 14.7669C38.7508 14.6057 39.3934 14.4983 40.0359 14.3371C40.143 14.3371 40.3037 14.3371 40.4108 14.2834ZM19.4203 52.4874C19.4739 52.8635 19.5274 53.2396 19.5274 53.6695C19.581 53.777 19.6881 53.9382 19.7416 54.0456C21.6693 69.3057 38.8044 80.6971 54.2794 77.5269C69.4868 74.3566 79.9285 59.4189 77.733 44.2125C75.9124 31.048 64.1856 19.7641 50.8524 19.1193C48.1215 18.2058 45.3906 18.9581 42.7668 19.4954C28.4698 22.2895 17.0643 36.2601 19.4203 52.4874Z" fill="url(#paint0_linear_46_1225)"/>
</g>
<path d="M19.4204 53.6701C19.5811 53.7238 19.6882 53.885 19.6346 54.0999C19.5811 53.9387 19.5275 53.7775 19.4204 53.6701Z" fill="#4E4E4E"/>
<g filter="url(#filter1_ddddd_46_1225)">
<path d="M54.0785 61.6752C47.7188 61.6752 41.5467 61.6752 35.3329 61.6752C35.3121 61.3196 35.2912 61.0059 35.2912 60.7131C35.2704 53.1412 35.2704 45.5903 35.2704 38.0184C35.2704 35.8012 36.2087 34.839 38.4398 34.8181C45.2583 34.8181 52.0559 34.7972 58.8744 34.8181C61.1055 34.8181 62.0439 35.7803 62.0439 37.9975C62.0439 42.8502 62.0439 47.6819 62.0439 52.5346C62.0439 52.8484 62.0439 53.1621 62.0439 53.7269C61.0221 53.2249 60.1881 52.6392 59.2706 52.3673C56.9769 51.6979 56.3097 50.2965 56.539 47.9957C56.7684 45.5066 56.6016 42.9966 56.6016 40.4029C51.3261 40.4029 46.0924 40.4029 40.796 40.4029C40.796 45.6321 40.796 50.8822 40.796 56.2578C41.4216 56.2578 42.0263 56.2578 42.6518 56.2578C45.3 56.2578 47.9273 56.2787 50.5755 56.2369C51.1802 56.2369 51.5138 56.3833 51.7848 56.969C52.473 58.5168 53.2445 60.0228 54.0785 61.6752Z" fill="#FF6B00"/>
</g>
<g filter="url(#filter2_dddddddd_46_1225)">
<path d="M51.411 50.9292C52.3319 51.3872 53.2108 51.8035 54.1107 52.2615C56.4756 53.4272 58.8195 54.6345 61.2053 55.7795C61.8541 56.0917 62.0634 56.4456 62.0424 57.1325C62.0006 58.6105 62.0215 60.0885 62.0215 61.6706C60.2845 61.6706 58.6521 61.6914 57.0197 61.6497C56.7895 61.6497 56.4756 61.4624 56.3919 61.275C54.6967 57.9444 53.0225 54.5929 51.3483 51.2414C51.3064 51.179 51.3692 51.1165 51.411 50.9292Z" fill="#FF6B00"/>
</g>
<defs>
<filter id="filter0_dddddd_46_1225" x="-2.20497e-05" y="0.000162018" width="96.9997" height="96.9997" filterUnits="userSpaceOnUse" color-interpolation-filters="sRGB">
<feFlood flood-opacity="0" result="BackgroundImageFix"/>
<feColorMatrix in="SourceAlpha" type="matrix" values="0 0 0 0 0 0 0 0 0 0 0 0 0 0 0 0 0 0 127 0" result="hardAlpha"/>
<feOffset/>
<feGaussianBlur stdDeviation="0.157695"/>
<feColorMatrix type="matrix" values="0 0 0 0 0.415686 0 0 0 0 0.988235 0 0 0 0 0.819608 0 0 0 1 0"/>
<feBlend mode="normal" in2="BackgroundImageFix" result="effect1_dropShadow_46_1225"/>
<feColorMatrix in="SourceAlpha" type="matrix" values="0 0 0 0 0 0 0 0 0 0 0 0 0 0 0 0 0 0 127 0" result="hardAlpha"/>
<feOffset/>
<feGaussianBlur stdDeviation="0.315391"/>
<feColorMatrix type="matrix" values="0 0 0 0 0.415686 0 0 0 0 0.988235 0 0 0 0 0.819608 0 0 0 1 0"/>
<feBlend mode="normal" in2="effect1_dropShadow_46_1225" result="effect2_dropShadow_46_1225"/>
<feColorMatrix in="SourceAlpha" type="matrix" values="0 0 0 0 0 0 0 0 0 0 0 0 0 0 0 0 0 0 127 0" result="hardAlpha"/>
<feOffset/>
<feGaussianBlur stdDeviation="1.10387"/>
<feColorMatrix type="matrix" values="0 0 0 0 0.415686 0 0 0 0 0.988235 0 0 0 0 0.819608 0 0 0 1 0"/>
<feBlend mode="normal" in2="effect2_dropShadow_46_1225" result="effect3_dropShadow_46_1225"/>
<feColorMatrix in="SourceAlpha" type="matrix" values="0 0 0 0 0 0 0 0 0 0 0 0 0 0 0 0 0 0 127 0" result="hardAlpha"/>
<feOffset/>
<feGaussianBlur stdDeviation="2.20774"/>
<feColorMatrix type="matrix" values="0 0 0 0 0.415686 0 0 0 0 0.988235 0 0 0 0 0.819608 0 0 0 1 0"/>
<feBlend mode="normal" in2="effect3_dropShadow_46_1225" result="effect4_dropShadow_46_1225"/>
<feColorMatrix in="SourceAlpha" type="matrix" values="0 0 0 0 0 0 0 0 0 0 0 0 0 0 0 0 0 0 127 0" result="hardAlpha"/>
<feOffset/>
<feGaussianBlur stdDeviation="3.78469"/>
<feColorMatrix type="matrix" values="0 0 0 0 0.415686 0 0 0 0 0.988235 0 0 0 0 0.819608 0 0 0 1 0"/>
<feBlend mode="normal" in2="effect4_dropShadow_46_1225" result="effect5_dropShadow_46_1225"/>
<feColorMatrix in="SourceAlpha" type="matrix" values="0 0 0 0 0 0 0 0 0 0 0 0 0 0 0 0 0 0 127 0" result="hardAlpha"/>
<feOffset/>
<feGaussianBlur stdDeviation="6.62321"/>
<feColorMatrix type="matrix" values="0 0 0 0 0.415686 0 0 0 0 0.988235 0 0 0 0 0.819608 0 0 0 1 0"/>
<feBlend mode="normal" in2="effect5_dropShadow_46_1225" result="effect6_dropShadow_46_1225"/>
<feBlend mode="normal" in="SourceGraphic" in2="effect6_dropShadow_46_1225" result="shape"/>
</filter>
<filter id="filter1_ddddd_46_1225" x="30.146" y="29.6845" width="37.0223" height="37.1152" filterUnits="userSpaceOnUse" color-interpolation-filters="sRGB">
<feFlood flood-opacity="0" result="BackgroundImageFix"/>
<feColorMatrix in="SourceAlpha" type="matrix" values="0 0 0 0 0 0 0 0 0 0 0 0 0 0 0 0 0 0 127 0" result="hardAlpha"/>
<feOffset/>
<feGaussianBlur stdDeviation="0.1062"/>
<feColorMatrix type="matrix" values="0 0 0 0 1 0 0 0 0 0.419608 0 0 0 0 0 0 0 0 1 0"/>
<feBlend mode="normal" in2="BackgroundImageFix" result="effect1_dropShadow_46_1225"/>
<feColorMatrix in="SourceAlpha" type="matrix" values="0 0 0 0 0 0 0 0 0 0 0 0 0 0 0 0 0 0 127 0" result="hardAlpha"/>
<feOffset/>
<feGaussianBlur stdDeviation="0.2124"/>
<feColorMatrix type="matrix" values="0 0 0 0 1 0 0 0 0 0.419608 0 0 0 0 0 0 0 0 1 0"/>
<feBlend mode="normal" in2="effect1_dropShadow_46_1225" result="effect2_dropShadow_46_1225"/>
<feColorMatrix in="SourceAlpha" type="matrix" values="0 0 0 0 0 0 0 0 0 0 0 0 0 0 0 0 0 0 127 0" result="hardAlpha"/>
<feOffset/>
<feGaussianBlur stdDeviation="0.7434"/>
<feColorMatrix type="matrix" values="0 0 0 0 1 0 0 0 0 0.419608 0 0 0 0 0 0 0 0 1 0"/>
<feBlend mode="normal" in2="effect2_dropShadow_46_1225" result="effect3_dropShadow_46_1225"/>
<feColorMatrix in="SourceAlpha" type="matrix" values="0 0 0 0 0 0 0 0 0 0 0 0 0 0 0 0 0 0 127 0" result="hardAlpha"/>
<feOffset/>
<feGaussianBlur stdDeviation="1.4868"/>
<feColorMatrix type="matrix" values="0 0 0 0 1 0 0 0 0 0.419608 0 0 0 0 0 0 0 0 1 0"/>
<feBlend mode="normal" in2="effect3_dropShadow_46_1225" result="effect4_dropShadow_46_1225"/>
<feColorMatrix in="SourceAlpha" type="matrix" values="0 0 0 0 0 0 0 0 0 0 0 0 0 0 0 0 0 0 127 0" result="hardAlpha"/>
<feOffset/>
<feGaussianBlur stdDeviation="2.5488"/>
<feColorMatrix type="matrix" values="0 0 0 0 1 0 0 0 0 0.419608 0 0 0 0 0 0 0 0 1 0"/>
<feBlend mode="normal" in2="effect4_dropShadow_46_1225" result="effect5_dropShadow_46_1225"/>
<feBlend mode="normal" in="SourceGraphic" in2="effect5_dropShadow_46_1225" result="shape"/>
</filter>
<filter id="filter2_dddddddd_46_1225" x="47.3134" y="47.2813" width="18.7514" height="22.4365" filterUnits="userSpaceOnUse" color-interpolation-filters="sRGB">
<feFlood flood-opacity="0" result="BackgroundImageFix"/>
<feColorMatrix in="SourceAlpha" type="matrix" values="0 0 0 0 0 0 0 0 0 0 0 0 0 0 0 0 0 0 127 0" result="hardAlpha"/>
<feOffset/>
<feGaussianBlur stdDeviation="0.0432"/>
<feColorMatrix type="matrix" values="0 0 0 0 1 0 0 0 0 0.419608 0 0 0 0 0 0 0 0 1 0"/>
<feBlend mode="normal" in2="BackgroundImageFix" result="effect1_dropShadow_46_1225"/>
<feColorMatrix in="SourceAlpha" type="matrix" values="0 0 0 0 0 0 0 0 0 0 0 0 0 0 0 0 0 0 127 0" result="hardAlpha"/>
<feOffset/>
<feGaussianBlur stdDeviation="0.0864"/>
<feColorMatrix type="matrix" values="0 0 0 0 1 0 0 0 0 0.419608 0 0 0 0 0 0 0 0 1 0"/>
<feBlend mode="normal" in2="effect1_dropShadow_46_1225" result="effect2_dropShadow_46_1225"/>
<feColorMatrix in="SourceAlpha" type="matrix" values="0 0 0 0 0 0 0 0 0 0 0 0 0 0 0 0 0 0 127 0" result="hardAlpha"/>
<feOffset/>
<feGaussianBlur stdDeviation="0.3024"/>
<feColorMatrix type="matrix" values="0 0 0 0 1 0 0 0 0 0.419608 0 0 0 0 0 0 0 0 1 0"/>
<feBlend mode="normal" in2="effect2_dropShadow_46_1225" result="effect3_dropShadow_46_1225"/>
<feColorMatrix in="SourceAlpha" type="matrix" values="0 0 0 0 0 0 0 0 0 0 0 0 0 0 0 0 0 0 127 0" result="hardAlpha"/>
<feOffset/>
<feGaussianBlur stdDeviation="0.6048"/>
<feColorMatrix type="matrix" values="0 0 0 0 1 0 0 0 0 0.419608 0 0 0 0 0 0 0 0 1 0"/>
<feBlend mode="normal" in2="effect3_dropShadow_46_1225" result="effect4_dropShadow_46_1225"/>
<feColorMatrix in="SourceAlpha" type="matrix" values="0 0 0 0 0 0 0 0 0 0 0 0 0 0 0 0 0 0 127 0" result="hardAlpha"/>
<feOffset/>
<feGaussianBlur stdDeviation="1.0368"/>
<feColorMatrix type="matrix" values="0 0 0 0 1 0 0 0 0 0.419608 0 0 0 0 0 0 0 0 1 0"/>
<feBlend mode="normal" in2="effect4_dropShadow_46_1225" result="effect5_dropShadow_46_1225"/>
<feColorMatrix in="SourceAlpha" type="matrix" values="0 0 0 0 0 0 0 0 0 0 0 0 0 0 0 0 0 0 127 0" result="hardAlpha"/>
<feOffset/>
<feGaussianBlur stdDeviation="1.8144"/>
<feColorMatrix type="matrix" values="0 0 0 0 1 0 0 0 0 0.419608 0 0 0 0 0 0 0 0 1 0"/>
<feBlend mode="normal" in2="effect5_dropShadow_46_1225" result="effect6_dropShadow_46_1225"/>
<feColorMatrix in="SourceAlpha" type="matrix" values="0 0 0 0 0 0 0 0 0 0 0 0 0 0 0 0 0 0 127 0" result="hardAlpha"/>
<feOffset dy="4"/>
<feGaussianBlur stdDeviation="2"/>
<feComposite in2="hardAlpha" operator="out"/>
<feColorMatrix type="matrix" values="0 0 0 0 0 0 0 0 0 0 0 0 0 0 0 0 0 0 0.25 0"/>
<feBlend mode="normal" in2="effect6_dropShadow_46_1225" result="effect7_dropShadow_46_1225"/>
<feColorMatrix in="SourceAlpha" type="matrix" values="0 0 0 0 0 0 0 0 0 0 0 0 0 0 0 0 0 0 127 0" result="hardAlpha"/>
<feOffset dy="4"/>
<feGaussianBlur stdDeviation="2"/>
<feComposite in2="hardAlpha" operator="out"/>
<feColorMatrix type="matrix" values="0 0 0 0 0 0 0 0 0 0 0 0 0 0 0 0 0 0 0.25 0"/>
<feBlend mode="normal" in2="effect7_dropShadow_46_1225" result="effect8_dropShadow_46_1225"/>
<feBlend mode="normal" in="SourceGraphic" in2="effect8_dropShadow_46_1225" result="shape"/>
</filter>
<linearGradient id="paint0_linear_46_1225" x1="53.5833" y1="13.3162" x2="48.4647" y2="83.6813" gradientUnits="userSpaceOnUse">
<stop stop-color="#10FAB5"/>
<stop offset="1" stop-color="#10FAB5" stop-opacity="0.59"/>
</linearGradient>
</defs>
</svg>
