<svg width="61" height="60" viewBox="0 0 61 60" fill="none" xmlns="http://www.w3.org/2000/svg">
<path d="M61 30C61 46.5685 47.5685 60 31 60C14.4315 60 1 46.5685 1 30C1 13.4315 14.4315 0 31 0C47.5685 0 61 13.4315 61 30Z" fill="white"/>
<path fill-rule="evenodd" clip-rule="evenodd" d="M30 2.4C14.7569 2.4 2.4 14.7569 2.4 30C2.4 45.2431 14.7569 57.6 30 57.6C45.2431 57.6 57.6 45.2431 57.6 30C57.6 14.7569 45.2431 2.4 30 2.4ZM0 30C0 13.4315 13.4315 0 30 0C46.5685 0 60 13.4315 60 30C60 46.5685 46.5685 60 30 60C13.4315 60 0 46.5685 0 30Z" fill="#E5E5E5"/>
</svg>
