<svg width="12" height="8" viewBox="0 0 12 8" fill="none" xmlns="http://www.w3.org/2000/svg">
<path fill-rule="evenodd" clip-rule="evenodd" d="M7.82573 0.160463C8.04069 0.392783 8.05933 0.792034 7.86747 1.05223L2.8985 7.78905C2.79951 7.92328 2.65795 8 2.50932 8C2.36069 8 2.21912 7.92328 2.12014 7.78905L0.132556 5.09432C-0.059353 4.83411 -0.0406815 4.43486 0.174261 4.20261C0.389197 3.97027 0.719019 3.99284 0.910928 4.25305L2.50932 6.42013L7.08911 0.210948C7.28097 -0.049246 7.61078 -0.0718484 7.82573 0.160463Z" fill="#979797"/>
<path fill-rule="evenodd" clip-rule="evenodd" d="M11.8257 0.160463C12.0407 0.392783 12.0593 0.792034 11.8675 1.05223L6.8985 7.78905C6.79951 7.92328 6.65795 8 6.50932 8C6.36069 8 6.21912 7.92328 6.12014 7.78905L4.13256 5.09432C3.94065 4.83411 3.95932 4.43486 4.17426 4.20261C4.3892 3.97027 4.71902 3.99284 4.91093 4.25305L6.50932 6.42013L11.0891 0.210948C11.281 -0.049246 11.6108 -0.0718484 11.8257 0.160463Z" fill="#979797"/>
</svg>
