<svg width="52" height="15" viewBox="0 0 52 15" fill="none" xmlns="http://www.w3.org/2000/svg">
<path d="M12.9711 5.64221C12.9015 5.38542 12.7166 5.19827 12.494 5.1595L8.71848 4.50124L7.02998 0.395375C6.93042 0.15329 6.72494 0 6.5 0C6.27502 0 6.06954 0.15329 5.97002 0.395375L4.28165 4.50119L0.506044 5.15946C0.283428 5.19827 0.0984408 5.38542 0.0289374 5.64216C-0.040566 5.89895 0.0173929 6.1808 0.178504 6.36922L2.91053 9.56466L2.26534 14.0776C2.22732 14.3437 2.31845 14.6126 2.50044 14.7713C2.6034 14.861 2.72535 14.9067 2.84788 14.9067C2.94193 14.9067 3.03638 14.8798 3.12286 14.8253L6.49996 12.6948L9.87702 14.8253C9.96402 14.8801 10.0593 14.9063 10.1537 14.9067C10.4797 14.9062 10.7438 14.5888 10.7438 14.1975C10.7438 14.143 10.7387 14.0899 10.729 14.039L10.0894 9.56471L12.8215 6.36922C12.9826 6.1808 13.0406 5.89895 12.9711 5.64221Z" fill="#E7440E"/>
<path d="M25.9711 5.64221C25.9015 5.38542 25.7166 5.19827 25.494 5.1595L21.7185 4.50124L20.03 0.395375C19.9304 0.15329 19.7249 0 19.5 0C19.275 0 19.0695 0.15329 18.97 0.395375L17.2816 4.50119L13.506 5.15946C13.2834 5.19827 13.0984 5.38542 13.0289 5.64216C12.9594 5.89895 13.0174 6.1808 13.1785 6.36922L15.9105 9.56466L15.2653 14.0776C15.2273 14.3437 15.3184 14.6126 15.5004 14.7713C15.6034 14.861 15.7253 14.9067 15.8479 14.9067C15.9419 14.9067 16.0364 14.8798 16.1229 14.8253L19.5 12.6948L22.877 14.8253C22.964 14.8801 23.0593 14.9063 23.1537 14.9067C23.4797 14.9062 23.7438 14.5888 23.7438 14.1975C23.7438 14.143 23.7387 14.0899 23.729 14.039L23.0894 9.56471L25.8215 6.36922C25.9826 6.1808 26.0406 5.89895 25.9711 5.64221Z" fill="#E7440E"/>
<path d="M38.9711 5.64221C38.9015 5.38542 38.7166 5.19827 38.494 5.1595L34.7185 4.50124L33.03 0.395375C32.9304 0.15329 32.7249 0 32.5 0C32.275 0 32.0696 0.15329 31.97 0.395375L30.2817 4.50119L26.5061 5.15946C26.2834 5.19827 26.0984 5.38542 26.0289 5.64216C25.9594 5.89895 26.0174 6.1808 26.1785 6.36922L28.9105 9.56466L28.2653 14.0776C28.2273 14.3437 28.3185 14.6126 28.5005 14.7713C28.6034 14.861 28.7254 14.9067 28.8479 14.9067C28.9419 14.9067 29.0364 14.8798 29.1229 14.8253L32.5 12.6948L35.877 14.8253C35.964 14.8801 36.0593 14.9063 36.1537 14.9067C36.4797 14.9062 36.7439 14.5888 36.7439 14.1975C36.7439 14.143 36.7387 14.0899 36.729 14.039L36.0894 9.56471L38.8215 6.36922C38.9826 6.1808 39.0406 5.89895 38.9711 5.64221Z" fill="#E7440E"/>
<path d="M51.9711 5.64221C51.9015 5.38542 51.7166 5.19827 51.494 5.1595L47.7185 4.50124L46.03 0.395375C45.9304 0.15329 45.7249 0 45.5 0C45.275 0 45.0695 0.15329 44.97 0.395375L43.2816 4.50119L39.506 5.15946C39.2834 5.19827 39.0984 5.38542 39.0289 5.64216C38.9594 5.89895 39.0174 6.1808 39.1785 6.36922L41.9105 9.56466L41.2653 14.0776C41.2273 14.3437 41.3185 14.6126 41.5004 14.7713C41.6034 14.861 41.7253 14.9067 41.8479 14.9067C41.9419 14.9067 42.0364 14.8798 42.1229 14.8253L45.5 12.6948L48.877 14.8253C48.964 14.8801 49.0593 14.9063 49.1537 14.9067C49.4797 14.9062 49.7438 14.5888 49.7438 14.1975C49.7438 14.143 49.7387 14.0899 49.729 14.039L49.0894 9.56471L51.8215 6.36922C51.9826 6.1808 52.0406 5.89895 51.9711 5.64221Z" fill="#E7440E"/>
</svg>
