<svg width="20" height="20" viewBox="0 0 20 20" fill="none" xmlns="http://www.w3.org/2000/svg">
<path d="M16.895 8.22409L14.0271 4.12833L15.3923 3.17236L18.2603 7.26813L16.895 8.22409Z" fill="black"/>
<path d="M15.3252 10.3408L13.8912 8.29296L7.06499 13.0728L8.49891 15.1206L7.13366 16.0766L3.30981 10.6156L4.67506 9.6596L6.10903 11.7075L12.9353 6.92771L11.5013 4.87979L12.8666 3.92383L16.6904 9.38485L15.3252 10.3408Z" fill="black"/>
<path d="M17.3043 5.90276L18.6696 4.9468L17.7136 3.58154L16.3484 4.53751L17.3043 5.90276Z" fill="black"/>
<path d="M5.97288 15.8716L3.105 11.7759L1.73975 12.7318L4.60763 16.8275L5.97288 15.8716Z" fill="black"/>
<path d="M3.65178 15.4624L2.28652 16.4183L1.33057 15.0531L2.69582 14.0972L3.65178 15.4624Z" fill="black"/>
</svg>
