<svg width="25" height="25" viewBox="0 0 25 25" fill="none" xmlns="http://www.w3.org/2000/svg">
<path d="M4.21039 23.7598L4.21038 23.7599L4.22292 23.7602L4.36252 23.7637L4.36252 23.7639H4.375H20.625C22.0278 23.7639 23.315 22.8399 23.4112 21.5065L23.4118 21.4975L23.4122 21.4885L23.4163 21.3721L23.4167 21.3632V21.3542V11.1111C23.4167 10.9893 23.5699 10.7431 23.9583 10.7431C24.3063 10.7431 24.4743 10.9491 24.4968 11.0728L24.5 11.1262V21.3542C24.5 22.9684 22.9395 24.4228 20.7926 24.4971L20.6207 24.5H4.375C2.20677 24.5 0.584957 23.0864 0.503348 21.4859L0.5 21.3481V11.1111C0.5 10.9893 0.653282 10.7431 1.04167 10.7431C1.38967 10.7431 1.55759 10.9491 1.58009 11.0728L1.58333 11.1262V21.3542C1.58333 22.7131 2.8279 23.6905 4.21039 23.7598ZM5.35152 6.08154L5.40563 6.03131L11.8772 0.638358C12.0776 0.471347 12.4266 0.451614 12.6581 0.60032L12.7202 0.646747L19.1919 6.03987C19.2899 6.12148 19.3171 6.20656 19.3171 6.26957C19.3171 6.33257 19.2899 6.41765 19.1919 6.49926C18.9915 6.66627 18.6425 6.68601 18.411 6.5373L18.3489 6.49088L13.6534 2.57771L12.8333 1.89424V2.96181V17.0139C12.8333 17.1287 12.7054 17.3459 12.3654 17.3784L12.2823 17.3819C11.9407 17.3783 11.7755 17.1748 11.7532 17.0522L11.75 16.9988V2.96458V1.89692L10.9299 2.5805L6.22832 6.49926C6.02791 6.66627 5.67894 6.68601 5.44736 6.5373L5.38707 6.49219C5.23708 6.36166 5.23846 6.20515 5.35152 6.08154Z" stroke="white"/>
</svg>
