<svg width="20" height="20" viewBox="0 0 20 20" fill="none" xmlns="http://www.w3.org/2000/svg">
<path fill-rule="evenodd" clip-rule="evenodd" d="M10 20C4.47715 20 0 15.5228 0 10C0 4.47715 4.47715 0 10 0C15.5228 0 20 4.47715 20 10C20 15.5228 15.5228 20 10 20ZM10 19C14.9706 19 19 14.9706 19 10C19 5.02944 14.9706 1 10 1C5.02944 1 1 5.02944 1 10C1 14.9706 5.02944 19 10 19ZM9.98816 17C6.42419 17 3.04175 13.5818 3.04175 11.1115C3.04175 9.69373 6.12217 11.4 9.98816 11.4C13.8542 11.4 16.9686 9.69604 16.9583 11.1115C16.9408 13.5054 13.5521 17 9.98816 17ZM9.98816 13.85C13.3019 13.85 15.5942 12.569 15.5942 11.6451C15.5942 10.7213 13.3019 12.196 9.98816 12.196C6.67445 12.196 4.42019 10.8983 4.42019 11.6451C4.42019 12.392 6.67445 13.85 9.98816 13.85ZM6.9875 8.22498C6.33167 8.22498 5.8 7.69331 5.8 7.03748C5.8 6.38164 6.33167 5.84998 6.9875 5.84998C7.64334 5.84998 8.175 6.38164 8.175 7.03748C8.175 7.69331 7.64334 8.22498 6.9875 8.22498ZM12.9875 8.22498C12.3317 8.22498 11.8 7.69331 11.8 7.03748C11.8 6.38164 12.3317 5.84998 12.9875 5.84998C13.6433 5.84998 14.175 6.38164 14.175 7.03748C14.175 7.69331 13.6433 8.22498 12.9875 8.22498Z" fill="black"/>
</svg>
