<svg width="32" height="13" viewBox="0 0 32 13" fill="none" xmlns="http://www.w3.org/2000/svg">
<path fill-rule="evenodd" clip-rule="evenodd" d="M14.6032 5.07937C14.0149 2.18128 11.4526 0 8.38095 0C5.30926 0 2.74703 2.18128 2.15875 5.07937H0.761905C0.341116 5.07937 0 5.42048 0 5.84127C0 6.26206 0.341116 6.60317 0.761905 6.60317H2.03673C2.17004 9.99201 4.95944 12.6984 8.38095 12.6984C11.8025 12.6984 14.5919 9.99201 14.7252 6.60317H17.2748C17.4081 9.99201 20.1975 12.6984 23.619 12.6984C27.0406 12.6984 29.83 9.99201 29.9633 6.60317H31.2381C31.6589 6.60317 32 6.26206 32 5.84127C32 5.42048 31.6589 5.07937 31.2381 5.07937H29.8412C29.253 2.18128 26.6907 0 23.619 0C20.5474 0 17.9851 2.18128 17.3968 5.07937H14.6032ZM3.55556 6.34921C3.55556 3.68421 5.71596 1.52381 8.38095 1.52381C11.0459 1.52381 13.2063 3.68421 13.2063 6.34921C13.2063 9.0142 11.0459 11.1746 8.38095 11.1746C5.71596 11.1746 3.55556 9.0142 3.55556 6.34921ZM18.7937 6.34921C18.7937 3.68421 20.9541 1.52381 23.619 1.52381C26.284 1.52381 28.4444 3.68421 28.4444 6.34921C28.4444 9.0142 26.284 11.1746 23.619 11.1746C20.9541 11.1746 18.7937 9.0142 18.7937 6.34921Z" fill="black"/>
</svg>
