<svg width="42" height="43" viewBox="0 0 42 43" fill="none" xmlns="http://www.w3.org/2000/svg">
<g filter="url(#filter0_d_709_2199)">
<rect width="42" height="42" rx="4.6" fill="white"/>
<path d="M18.126 28.956H23.874C24.9375 28.956 25.5439 28.3144 25.5439 27.2949V23.1288H29.3496C29.9473 23.1288 30.4043 22.7685 30.4043 22.206C30.4043 21.8544 30.2373 21.5995 29.9561 21.3183L22.0195 13.3906C21.6416 13.0126 21.3428 12.8632 21 12.8632C20.6572 12.8632 20.3496 13.0126 19.9805 13.3906L12.0439 21.3183C11.7539 21.6083 11.5957 21.8544 11.5957 22.206C11.5957 22.7685 12.0527 23.1288 12.6504 23.1288H16.4561V27.2949C16.4561 28.3144 17.0625 28.956 18.126 28.956Z" fill="black"/>
</g>
<defs>
<filter id="filter0_d_709_2199" x="0" y="0" width="42" height="43" filterUnits="userSpaceOnUse" color-interpolation-filters="sRGB">
<feFlood flood-opacity="0" result="BackgroundImageFix"/>
<feColorMatrix in="SourceAlpha" type="matrix" values="0 0 0 0 0 0 0 0 0 0 0 0 0 0 0 0 0 0 127 0" result="hardAlpha"/>
<feOffset dy="1"/>
<feColorMatrix type="matrix" values="0 0 0 0 0 0 0 0 0 0 0 0 0 0 0 0 0 0 0.35 0"/>
<feBlend mode="normal" in2="BackgroundImageFix" result="effect1_dropShadow_709_2199"/>
<feBlend mode="normal" in="SourceGraphic" in2="effect1_dropShadow_709_2199" result="shape"/>
</filter>
</defs>
</svg>
