<svg width="40" height="40" viewBox="0 0 40 40" fill="none" xmlns="http://www.w3.org/2000/svg">
<path fill-rule="evenodd" clip-rule="evenodd" d="M20 0C8.7334 0 0 8.2528 0 19.4C0 25.2307 2.3896 30.2691 6.28112 33.7492C6.6078 34.0416 6.805 34.4512 6.8184 34.8896L6.92732 38.4472C6.96212 39.582 8.13428 40.3204 9.17268 39.862L13.1424 38.1096C13.4789 37.9612 13.856 37.9336 14.2106 38.0312C16.0348 38.5328 17.9763 38.8 20 38.8C31.2666 38.8 40 30.5472 40 19.4C40 8.2528 31.2666 0 20 0Z" fill="url(#paint0_radial_280_2091)"/>
<path fill-rule="evenodd" clip-rule="evenodd" d="M7.99019 25.0734L13.8652 15.7526C14.7997 14.2698 16.8009 13.9006 18.2031 14.9522L22.8758 18.4567C23.3045 18.7783 23.8944 18.7766 24.3213 18.4526L30.632 13.6632C31.4743 13.024 32.5738 14.032 32.0101 14.9265L26.1351 24.2474C25.2005 25.7301 23.1993 26.0994 21.7972 25.0477L17.1244 21.5431C16.6957 21.2216 16.1058 21.2233 15.6789 21.5473L9.36819 26.3367C8.52591 26.9759 7.42639 25.9679 7.99019 25.0734Z" fill="white"/>
<defs>
<radialGradient id="paint0_radial_280_2091" cx="0" cy="0" r="1" gradientUnits="userSpaceOnUse" gradientTransform="translate(7.69897 39.786) scale(43.5838 43.5838)">
<stop stop-color="#0099FF"/>
<stop offset="0.609754" stop-color="#A033FF"/>
<stop offset="0.934823" stop-color="#FF5280"/>
<stop offset="1" stop-color="#FF7061"/>
</radialGradient>
</defs>
</svg>
