<svg width="30" height="40" viewBox="0 0 30 40" fill="none" xmlns="http://www.w3.org/2000/svg">
<path fill-rule="evenodd" clip-rule="evenodd" d="M14.412 3.31462C12.195 7.18432 10.782 13.0395 10.782 19.5935C10.782 26.1475 12.195 32.0026 14.412 35.8723C12.8787 38.0453 11.0875 39.1972 9.258 39.1869C4.1445 39.1869 0 30.4156 0 19.5935C0 8.77138 4.1445 6.9625e-05 9.258 6.9625e-05C11.166 6.9625e-05 12.939 1.22139 14.412 3.31462ZM15.588 35.8723C17.805 32.0026 19.218 26.1475 19.218 19.5935C19.218 13.0395 17.805 7.18432 15.588 3.31462C17.1213 1.1416 18.9125 -0.0103169 20.742 6.9625e-05C25.8555 6.9625e-05 30 8.77138 30 19.5935C30 30.4156 25.8555 39.1869 20.742 39.1869C18.9125 39.1972 17.1213 38.0453 15.588 35.8723ZM15 4.22245C17.142 7.81457 18.516 13.366 18.516 19.5935C18.516 25.8242 17.142 31.3756 15 34.9645C12.858 31.3724 11.484 25.8209 11.484 19.5935C11.484 13.3628 12.858 7.8113 15 4.22245Z" fill="white"/>
</svg>
