<svg width="30" height="21" viewBox="0 0 30 21" fill="none" xmlns="http://www.w3.org/2000/svg">
<path d="M0.937478 1.87496H29.0625C29.5801 1.87496 30 1.45492 30 0.937478C30 0.419956 29.58 0 29.0625 0H0.937478C0.420034 0 0 0.419956 0 0.937478C0 1.455 0.420034 1.87496 0.937478 1.87496Z" fill="#854784"/>
<path d="M29.0625 9.37503H0.937478C0.419956 9.37503 0 9.79506 0 10.3125C0 10.83 0.420034 11.25 0.937478 11.25H29.0625C29.5801 11.25 30 10.83 30 10.3125C30 9.79506 29.5801 9.37503 29.0625 9.37503Z" fill="#854784"/>
<path d="M29.0625 18.75H0.937478C0.419956 18.75 0 19.1701 0 19.6875C0 20.205 0.420034 20.625 0.937478 20.625H29.0625C29.5801 20.625 30 20.2049 30 19.6875C30.0001 19.17 29.5801 18.75 29.0625 18.75Z" fill="#854784"/>
</svg>
