<svg width="13" height="13" viewBox="0 0 13 13" fill="none" xmlns="http://www.w3.org/2000/svg">
<path fill-rule="evenodd" clip-rule="evenodd" d="M6.5 0C2.83835 0 0 2.68216 0 6.305C0 8.19998 0.77662 9.83746 2.04136 10.9685C2.14754 11.0635 2.21162 11.1966 2.21598 11.3391L2.25138 12.4953C2.26269 12.8641 2.64364 13.1041 2.98112 12.9551L4.27128 12.3856C4.38065 12.3374 4.5032 12.3284 4.61845 12.3601C5.21131 12.5232 5.8423 12.61 6.5 12.61C10.1616 12.61 13 9.92784 13 6.305C13 2.68216 10.1616 0 6.5 0Z" fill="url(#paint0_radial_280_2115)"/>
<path fill-rule="evenodd" clip-rule="evenodd" d="M2.59686 8.1491L4.50623 5.11984C4.80995 4.63793 5.46034 4.51794 5.91606 4.85971L7.43468 5.99868C7.57401 6.1032 7.76572 6.10264 7.90447 5.99734L9.95544 4.44078C10.2292 4.23304 10.5865 4.56064 10.4033 4.85136L8.49396 7.88064C8.19021 8.36253 7.53982 8.48254 7.08413 8.14075L5.56547 7.00175C5.42615 6.89726 5.23443 6.89782 5.09569 7.00312L3.04471 8.55967C2.77097 8.7674 2.41363 8.4398 2.59686 8.1491Z" fill="white"/>
<defs>
<radialGradient id="paint0_radial_280_2115" cx="0" cy="0" r="1" gradientUnits="userSpaceOnUse" gradientTransform="translate(2.50217 12.9305) scale(14.1647 14.1647)">
<stop stop-color="#0099FF"/>
<stop offset="0.609754" stop-color="#A033FF"/>
<stop offset="0.934823" stop-color="#FF5280"/>
<stop offset="1" stop-color="#FF7061"/>
</radialGradient>
</defs>
</svg>
