<svg width="35" height="35" viewBox="0 0 35 35" fill="none" xmlns="http://www.w3.org/2000/svg">
<mask id="path-1-outside-1_275_3119" maskUnits="userSpaceOnUse" x="3.01041" y="2.28125" width="29" height="30" fill="black">
<rect fill="white" x="3.01041" y="2.28125" width="29" height="30"/>
<path d="M17.9582 28.4232L16.9397 28.0248L17.9582 28.4232ZM5.51117 20.6176L4.44521 20.8626L5.51117 20.6176ZM5.50624 13.4552L4.44028 13.2102L5.50624 13.4552ZM29.5277 13.7775L30.5938 13.5325L29.5277 13.7775ZM29.5277 20.2739L28.4618 20.0289L29.5277 20.2739ZM13.5857 30.3673L14.0157 29.3616L13.5857 30.3673ZM14.1306 4.77081L14.3852 5.83451L14.1306 4.77081ZM20.8294 4.77081L20.5747 5.83451L20.8294 4.77081ZM13.4134 30.2937L12.9834 31.2993L13.4134 30.2937ZM21.3851 4.90385L21.6398 3.84016L21.3851 4.90385ZM29.3982 13.2138L28.3323 13.4588L29.3982 13.2138ZM13.8053 4.84868L13.5507 3.78497L13.8053 4.84868ZM12.6821 12.1157C12.078 12.1157 11.5883 12.6054 11.5883 13.2095C11.5883 13.8136 12.078 14.3032 12.6821 14.3032V12.1157ZM21.4782 14.3032C22.0824 14.3032 22.5719 13.8136 22.5719 13.2095C22.5719 12.6054 22.0824 12.1157 21.4782 12.1157V14.3032ZM12.6821 17.156C12.078 17.156 11.5883 17.6457 11.5883 18.2497C11.5883 18.8538 12.078 19.3435 12.6821 19.3435V17.156ZM18.2796 19.3435C18.8837 19.3435 19.3734 18.8538 19.3734 18.2497C19.3734 17.6457 18.8837 17.156 18.2796 17.156V19.3435ZM14.0599 5.91238L14.3852 5.83451L13.8759 3.70711L13.5507 3.78497L14.0599 5.91238ZM20.5747 5.83451L21.1305 5.96756L21.6398 3.84016L21.084 3.70711L20.5747 5.83451ZM14.0157 29.3616L13.8434 29.288L12.9834 31.2993L13.1558 31.373L14.0157 29.3616ZM28.3323 13.4588L28.4618 14.0225L30.5938 13.5325L30.4641 12.9688L28.3323 13.4588ZM20.6676 26.5078H19.1198V28.6953H20.6676V26.5078ZM19.1198 26.5078C18.1306 26.5078 17.2855 27.1407 16.9397 28.0248L18.9768 28.8216C19.0175 28.7176 19.0925 28.6953 19.1198 28.6953V26.5078ZM6.57712 20.3726C6.07446 18.1857 6.07022 15.884 6.57219 13.7002L4.44028 13.2102C3.8635 15.7195 3.86911 18.3562 4.44521 20.8626L6.57712 20.3726ZM28.4618 14.0225C28.9155 15.996 28.9155 18.0553 28.4618 20.0289L30.5938 20.5189C31.1216 18.2229 31.1216 15.8285 30.5938 13.5325L28.4618 14.0225ZM13.1558 31.373C15.4774 32.3657 18.0674 31.1465 18.9768 28.8216L16.9397 28.0248C16.445 29.2892 15.1156 29.8318 14.0157 29.3616L13.1558 31.373ZM14.3852 5.83451C16.4224 5.34683 18.5375 5.34683 20.5747 5.83451L21.084 3.70711C18.712 3.1393 16.248 3.1393 13.8759 3.70711L14.3852 5.83451ZM13.8434 29.288C10.2295 27.7429 7.50522 24.4102 6.57712 20.3726L4.44521 20.8626C5.52082 25.542 8.69055 29.464 12.9834 31.2993L13.8434 29.288ZM28.4618 20.0289C27.58 23.8652 24.3336 26.5078 20.6676 26.5078V28.6953C25.4214 28.6953 29.4993 25.2804 30.5938 20.5189L28.4618 20.0289ZM21.1305 5.96756C24.6604 6.81249 27.4676 9.69693 28.3323 13.4588L30.4641 12.9688C29.4241 8.44352 26.0226 4.8893 21.6398 3.84016L21.1305 5.96756ZM13.5507 3.78497C9.02662 4.86792 5.51445 8.53704 4.44028 13.2102L6.57219 13.7002C7.47089 9.79046 10.3889 6.79111 14.0599 5.91238L13.5507 3.78497ZM12.6821 14.3032H21.4782V12.1157H12.6821V14.3032ZM12.6821 19.3435H18.2796V17.156H12.6821V19.3435Z"/>
</mask>
<path d="M17.9582 28.4232L16.9397 28.0248L17.9582 28.4232ZM5.51117 20.6176L4.44521 20.8626L5.51117 20.6176ZM5.50624 13.4552L4.44028 13.2102L5.50624 13.4552ZM29.5277 13.7775L30.5938 13.5325L29.5277 13.7775ZM29.5277 20.2739L28.4618 20.0289L29.5277 20.2739ZM13.5857 30.3673L14.0157 29.3616L13.5857 30.3673ZM14.1306 4.77081L14.3852 5.83451L14.1306 4.77081ZM20.8294 4.77081L20.5747 5.83451L20.8294 4.77081ZM13.4134 30.2937L12.9834 31.2993L13.4134 30.2937ZM21.3851 4.90385L21.6398 3.84016L21.3851 4.90385ZM29.3982 13.2138L28.3323 13.4588L29.3982 13.2138ZM13.8053 4.84868L13.5507 3.78497L13.8053 4.84868ZM12.6821 12.1157C12.078 12.1157 11.5883 12.6054 11.5883 13.2095C11.5883 13.8136 12.078 14.3032 12.6821 14.3032V12.1157ZM21.4782 14.3032C22.0824 14.3032 22.5719 13.8136 22.5719 13.2095C22.5719 12.6054 22.0824 12.1157 21.4782 12.1157V14.3032ZM12.6821 17.156C12.078 17.156 11.5883 17.6457 11.5883 18.2497C11.5883 18.8538 12.078 19.3435 12.6821 19.3435V17.156ZM18.2796 19.3435C18.8837 19.3435 19.3734 18.8538 19.3734 18.2497C19.3734 17.6457 18.8837 17.156 18.2796 17.156V19.3435ZM14.0599 5.91238L14.3852 5.83451L13.8759 3.70711L13.5507 3.78497L14.0599 5.91238ZM20.5747 5.83451L21.1305 5.96756L21.6398 3.84016L21.084 3.70711L20.5747 5.83451ZM14.0157 29.3616L13.8434 29.288L12.9834 31.2993L13.1558 31.373L14.0157 29.3616ZM28.3323 13.4588L28.4618 14.0225L30.5938 13.5325L30.4641 12.9688L28.3323 13.4588ZM20.6676 26.5078H19.1198V28.6953H20.6676V26.5078ZM19.1198 26.5078C18.1306 26.5078 17.2855 27.1407 16.9397 28.0248L18.9768 28.8216C19.0175 28.7176 19.0925 28.6953 19.1198 28.6953V26.5078ZM6.57712 20.3726C6.07446 18.1857 6.07022 15.884 6.57219 13.7002L4.44028 13.2102C3.8635 15.7195 3.86911 18.3562 4.44521 20.8626L6.57712 20.3726ZM28.4618 14.0225C28.9155 15.996 28.9155 18.0553 28.4618 20.0289L30.5938 20.5189C31.1216 18.2229 31.1216 15.8285 30.5938 13.5325L28.4618 14.0225ZM13.1558 31.373C15.4774 32.3657 18.0674 31.1465 18.9768 28.8216L16.9397 28.0248C16.445 29.2892 15.1156 29.8318 14.0157 29.3616L13.1558 31.373ZM14.3852 5.83451C16.4224 5.34683 18.5375 5.34683 20.5747 5.83451L21.084 3.70711C18.712 3.1393 16.248 3.1393 13.8759 3.70711L14.3852 5.83451ZM13.8434 29.288C10.2295 27.7429 7.50522 24.4102 6.57712 20.3726L4.44521 20.8626C5.52082 25.542 8.69055 29.464 12.9834 31.2993L13.8434 29.288ZM28.4618 20.0289C27.58 23.8652 24.3336 26.5078 20.6676 26.5078V28.6953C25.4214 28.6953 29.4993 25.2804 30.5938 20.5189L28.4618 20.0289ZM21.1305 5.96756C24.6604 6.81249 27.4676 9.69693 28.3323 13.4588L30.4641 12.9688C29.4241 8.44352 26.0226 4.8893 21.6398 3.84016L21.1305 5.96756ZM13.5507 3.78497C9.02662 4.86792 5.51445 8.53704 4.44028 13.2102L6.57219 13.7002C7.47089 9.79046 10.3889 6.79111 14.0599 5.91238L13.5507 3.78497ZM12.6821 14.3032H21.4782V12.1157H12.6821V14.3032ZM12.6821 19.3435H18.2796V17.156H12.6821V19.3435Z" fill="#E7440E"/>
<path d="M17.9582 28.4232L16.9397 28.0248L17.9582 28.4232ZM5.51117 20.6176L4.44521 20.8626L5.51117 20.6176ZM5.50624 13.4552L4.44028 13.2102L5.50624 13.4552ZM29.5277 13.7775L30.5938 13.5325L29.5277 13.7775ZM29.5277 20.2739L28.4618 20.0289L29.5277 20.2739ZM13.5857 30.3673L14.0157 29.3616L13.5857 30.3673ZM14.1306 4.77081L14.3852 5.83451L14.1306 4.77081ZM20.8294 4.77081L20.5747 5.83451L20.8294 4.77081ZM13.4134 30.2937L12.9834 31.2993L13.4134 30.2937ZM21.3851 4.90385L21.6398 3.84016L21.3851 4.90385ZM29.3982 13.2138L28.3323 13.4588L29.3982 13.2138ZM13.8053 4.84868L13.5507 3.78497L13.8053 4.84868ZM12.6821 12.1157C12.078 12.1157 11.5883 12.6054 11.5883 13.2095C11.5883 13.8136 12.078 14.3032 12.6821 14.3032V12.1157ZM21.4782 14.3032C22.0824 14.3032 22.5719 13.8136 22.5719 13.2095C22.5719 12.6054 22.0824 12.1157 21.4782 12.1157V14.3032ZM12.6821 17.156C12.078 17.156 11.5883 17.6457 11.5883 18.2497C11.5883 18.8538 12.078 19.3435 12.6821 19.3435V17.156ZM18.2796 19.3435C18.8837 19.3435 19.3734 18.8538 19.3734 18.2497C19.3734 17.6457 18.8837 17.156 18.2796 17.156V19.3435ZM14.0599 5.91238L14.3852 5.83451L13.8759 3.70711L13.5507 3.78497L14.0599 5.91238ZM20.5747 5.83451L21.1305 5.96756L21.6398 3.84016L21.084 3.70711L20.5747 5.83451ZM14.0157 29.3616L13.8434 29.288L12.9834 31.2993L13.1558 31.373L14.0157 29.3616ZM28.3323 13.4588L28.4618 14.0225L30.5938 13.5325L30.4641 12.9688L28.3323 13.4588ZM20.6676 26.5078H19.1198V28.6953H20.6676V26.5078ZM19.1198 26.5078C18.1306 26.5078 17.2855 27.1407 16.9397 28.0248L18.9768 28.8216C19.0175 28.7176 19.0925 28.6953 19.1198 28.6953V26.5078ZM6.57712 20.3726C6.07446 18.1857 6.07022 15.884 6.57219 13.7002L4.44028 13.2102C3.8635 15.7195 3.86911 18.3562 4.44521 20.8626L6.57712 20.3726ZM28.4618 14.0225C28.9155 15.996 28.9155 18.0553 28.4618 20.0289L30.5938 20.5189C31.1216 18.2229 31.1216 15.8285 30.5938 13.5325L28.4618 14.0225ZM13.1558 31.373C15.4774 32.3657 18.0674 31.1465 18.9768 28.8216L16.9397 28.0248C16.445 29.2892 15.1156 29.8318 14.0157 29.3616L13.1558 31.373ZM14.3852 5.83451C16.4224 5.34683 18.5375 5.34683 20.5747 5.83451L21.084 3.70711C18.712 3.1393 16.248 3.1393 13.8759 3.70711L14.3852 5.83451ZM13.8434 29.288C10.2295 27.7429 7.50522 24.4102 6.57712 20.3726L4.44521 20.8626C5.52082 25.542 8.69055 29.464 12.9834 31.2993L13.8434 29.288ZM28.4618 20.0289C27.58 23.8652 24.3336 26.5078 20.6676 26.5078V28.6953C25.4214 28.6953 29.4993 25.2804 30.5938 20.5189L28.4618 20.0289ZM21.1305 5.96756C24.6604 6.81249 27.4676 9.69693 28.3323 13.4588L30.4641 12.9688C29.4241 8.44352 26.0226 4.8893 21.6398 3.84016L21.1305 5.96756ZM13.5507 3.78497C9.02662 4.86792 5.51445 8.53704 4.44028 13.2102L6.57219 13.7002C7.47089 9.79046 10.3889 6.79111 14.0599 5.91238L13.5507 3.78497ZM12.6821 14.3032H21.4782V12.1157H12.6821V14.3032ZM12.6821 19.3435H18.2796V17.156H12.6821V19.3435Z" stroke="#E7440E" stroke-width="0.8" mask="url(#path-1-outside-1_275_3119)"/>
</svg>
