<svg width="19" height="28" viewBox="0 0 19 28" fill="none" xmlns="http://www.w3.org/2000/svg">
<path d="M9.36822 18.4879C12.1813 18.4879 14.1178 16.3682 14.1178 13.3589V5.12897C14.1178 2.10654 12.1813 0 9.36822 0C6.54206 0 4.60561 2.10654 4.60561 5.12897V13.3589C4.60561 16.3682 6.54206 18.4879 9.36822 18.4879ZM9.36822 16.5383C7.69346 16.5383 6.58131 15.2953 6.58131 13.3589V5.12897C6.58131 3.19252 7.69346 1.94953 9.36822 1.94953C11.043 1.94953 12.1421 3.19252 12.1421 5.12897V13.3589C12.1421 15.2953 11.043 16.5383 9.36822 16.5383ZM3.51963 28H15.2037C15.7533 28 16.1981 27.5682 16.1981 27.0187C16.1981 26.4692 15.7533 26.0243 15.2037 26.0243H10.3495V22.9757C15.3477 22.557 18.7234 18.972 18.7234 13.8299V11.1738C18.7234 10.6243 18.2916 10.1925 17.7421 10.1925C17.1925 10.1925 16.7477 10.6243 16.7477 11.1738V13.7514C16.7477 18.2131 13.843 21.1701 9.36822 21.1701C4.88037 21.1701 1.9757 18.2131 1.9757 13.7514V11.1738C1.9757 10.6243 1.54393 10.1925 0.981308 10.1925C0.431776 10.1925 0 10.6243 0 11.1738V13.8299C0 18.972 3.38878 22.557 8.37383 22.9757V26.0243H3.51963C2.97009 26.0243 2.52523 26.4692 2.52523 27.0187C2.52523 27.5682 2.97009 28 3.51963 28Z" fill="#51555B"/>
</svg>
