<svg width="19" height="19" viewBox="0 0 19 19" fill="none" xmlns="http://www.w3.org/2000/svg">
<path d="M1.36076 0.000592697C0.809654 0.000737475 0.313581 0.334884 0.106203 0.845645C-0.101175 1.35641 0.0214948 1.94193 0.416434 2.32642L7.58488 9.49707L0.416434 16.6677C0.0626306 17.0075 -0.0798893 17.5121 0.0438389 17.9868C0.167567 18.4616 0.538209 18.8324 1.01282 18.9561C1.48743 19.0799 1.99185 18.9373 2.33154 18.5834L9.49999 11.4128L16.6684 18.5834C17.0081 18.9373 17.5125 19.0799 17.9872 18.9561C18.4618 18.8324 18.8324 18.4616 18.9561 17.9868C19.0799 17.5121 18.9373 17.0075 18.5835 16.6677L11.4151 9.49707L18.5835 2.32642C18.9841 1.93694 19.1045 1.34143 18.8868 0.826833C18.6691 0.312236 18.1579 -0.0158789 17.5995 0.000592697C17.2477 0.01108 16.9137 0.158178 16.6684 0.410722L9.49999 7.58137L2.33154 0.410722C2.07656 0.148534 1.72644 0.000614019 1.36076 0.000592697Z" fill="#E7440E"/>
</svg>
