<svg width="19" height="17" viewBox="0 0 19 17" fill="none" xmlns="http://www.w3.org/2000/svg">
<path d="M6.59673 16.2565H12.4033C13.4776 16.2565 14.0902 15.6084 14.0902 14.5785V10.3701H17.9346C18.5383 10.3701 19 10.0061 19 9.43785C19 9.08271 18.8313 8.82523 18.5472 8.54112L10.5299 0.53271C10.1481 0.150935 9.84626 0 9.5 0C9.15374 0 8.84299 0.150935 8.47009 0.53271L0.452804 8.54112C0.159813 8.83411 0 9.08271 0 9.43785C0 10.0061 0.461682 10.3701 1.06542 10.3701H4.90981V14.5785C4.90981 15.6084 5.52243 16.2565 6.59673 16.2565Z" fill="black"/>
</svg>
