<svg width="14" height="20" viewBox="0 0 14 20" fill="none" xmlns="http://www.w3.org/2000/svg">
<path d="M6.69159 13.2056C8.70093 13.2056 10.0841 11.6916 10.0841 9.54206V3.66355C10.0841 1.50467 8.70093 0 6.69159 0C4.6729 0 3.28972 1.50467 3.28972 3.66355V9.54206C3.28972 11.6916 4.6729 13.2056 6.69159 13.2056ZM6.69159 11.8131C5.49533 11.8131 4.70093 10.9252 4.70093 9.54206V3.66355C4.70093 2.28037 5.49533 1.39252 6.69159 1.39252C7.88785 1.39252 8.6729 2.28037 8.6729 3.66355V9.54206C8.6729 10.9252 7.88785 11.8131 6.69159 11.8131ZM2.51402 20H10.8598C11.2523 20 11.5701 19.6916 11.5701 19.2991C11.5701 18.9065 11.2523 18.5888 10.8598 18.5888H7.39252V16.4112C10.9626 16.1121 13.3738 13.5514 13.3738 9.8785V7.98131C13.3738 7.58879 13.0654 7.28037 12.6729 7.28037C12.2804 7.28037 11.9626 7.58879 11.9626 7.98131V9.82243C11.9626 13.0093 9.88785 15.1215 6.69159 15.1215C3.48598 15.1215 1.41121 13.0093 1.41121 9.82243V7.98131C1.41121 7.58879 1.1028 7.28037 0.700935 7.28037C0.308411 7.28037 0 7.58879 0 7.98131V9.8785C0 13.5514 2.42056 16.1121 5.98131 16.4112V18.5888H2.51402C2.1215 18.5888 1.80374 18.9065 1.80374 19.2991C1.80374 19.6916 2.1215 20 2.51402 20Z" fill="black"/>
</svg>
