<svg width="30" height="30" viewBox="0 0 30 30" fill="none" xmlns="http://www.w3.org/2000/svg">
<path d="M15 15.9062C18.0443 15.9062 20.5102 13.4222 20.5102 10.3552C20.5102 7.28827 18.0443 4.8042 15 4.8042C11.9556 4.8042 9.48975 7.28827 9.48975 10.3552C9.48975 13.4222 11.9556 15.9062 15 15.9062Z" fill="#979797"/>
<path d="M10.6399 17.879C10.9477 17.8033 11.2634 17.9581 11.4032 18.2445L13.8913 20.0814C14.9999 20.0811 14.9999 20.0815 16.1084 20.0812L18.5966 18.2445C18.7364 17.9581 19.0521 17.8033 19.3599 17.879C22.6686 18.692 26.0203 20.3499 26.0203 22.844V25.6195H3.97949V22.844C3.97949 20.3499 7.33123 18.692 10.6399 17.879Z" fill="#979797"/>
</svg>
