<svg width="335" height="158" viewBox="0 0 335 158" fill="none" xmlns="http://www.w3.org/2000/svg">
<mask id="path-1-inside-1_289_3043" fill="white">
<path d="M0 10C0 4.47715 4.47715 0 10 0H325C330.523 0 335 4.47715 335 10V61C335 66.5228 330.523 71 325 71H9.99999C4.47715 71 0 66.5228 0 61V10Z"/>
<path d="M0 96.5C0 90.9771 4.47715 86.5 10 86.5H325C330.523 86.5 335 90.9771 335 96.5V147.5C335 153.023 330.523 157.5 325 157.5H9.99999C4.47714 157.5 0 153.023 0 147.5V96.5Z"/>
</mask>
<path d="M0 10C0 4.47715 4.47715 0 10 0H325C330.523 0 335 4.47715 335 10V61C335 66.5228 330.523 71 325 71H9.99999C4.47715 71 0 66.5228 0 61V10Z" fill="white"/>
<path d="M0 96.5C0 90.9771 4.47715 86.5 10 86.5H325C330.523 86.5 335 90.9771 335 96.5V147.5C335 153.023 330.523 157.5 325 157.5H9.99999C4.47714 157.5 0 153.023 0 147.5V96.5Z" fill="white"/>
<path d="M10 0.15H325V-0.15H10V0.15ZM334.85 10V61H335.15V10H334.85ZM325 70.85H9.99999V71.15H325V70.85ZM0.15 61V10H-0.15V61H0.15ZM10 86.65H325V86.35H10V86.65ZM334.85 96.5V147.5H335.15V96.5H334.85ZM325 157.35H9.99999V157.65H325V157.35ZM0.15 147.5V96.5H-0.15V147.5H0.15ZM9.99999 157.35C4.55999 157.35 0.15 152.94 0.15 147.5H-0.15C-0.15 153.106 4.3943 157.65 9.99999 157.65V157.35ZM334.85 147.5C334.85 152.94 330.44 157.35 325 157.35V157.65C330.606 157.65 335.15 153.106 335.15 147.5H334.85ZM325 86.65C330.44 86.65 334.85 91.06 334.85 96.5H335.15C335.15 90.8943 330.606 86.35 325 86.35V86.65ZM10 86.35C4.39431 86.35 -0.15 90.8943 -0.15 96.5H0.15C0.15 91.06 4.55999 86.65 10 86.65V86.35ZM9.99999 70.85C4.55999 70.85 0.15 66.44 0.15 61H-0.15C-0.15 66.6057 4.3943 71.15 9.99999 71.15V70.85ZM334.85 61C334.85 66.44 330.44 70.85 325 70.85V71.15C330.606 71.15 335.15 66.6057 335.15 61H334.85ZM325 0.15C330.44 0.15 334.85 4.55999 334.85 10H335.15C335.15 4.39431 330.606 -0.15 325 -0.15V0.15ZM10 -0.15C4.39431 -0.15 -0.15 4.39431 -0.15 10H0.15C0.15 4.55999 4.55999 0.15 10 0.15V-0.15Z" fill="black" mask="url(#path-1-inside-1_289_3043)"/>
</svg>
