<svg width="23" height="23" viewBox="0 0 23 23" fill="none" xmlns="http://www.w3.org/2000/svg">
<path d="M1.725 0C1.5778 0 1.43116 0.0569071 1.31846 0.168457C1.09421 0.392707 1.09421 0.757293 1.31846 0.981543L3.55781 3.2209C1.37428 5.31291 0 8.24379 0 11.5C0 17.838 5.16197 23 11.5 23C17.838 23 23 17.838 23 11.5C23 5.59373 18.5225 0.710228 12.7758 0.0741211C12.7377 0.0699704 12.6995 0.0677215 12.6612 0.0673829C12.0484 0.0614772 11.5386 0.537112 11.5021 1.14885C11.4655 1.76059 11.9151 2.29354 12.5242 2.36064C17.1252 2.86994 20.7 6.75267 20.7 11.5C20.7 16.5953 16.5953 20.7 11.5 20.7C6.40473 20.7 2.3 16.5953 2.3 11.5C2.3 8.86712 3.41264 6.51406 5.17949 4.84258L7.06846 6.73154C7.29271 6.95579 7.65729 6.95579 7.88154 6.73154C7.99424 6.61999 8.05 6.4722 8.05 6.325V1.15C8.05 0.514873 7.53513 0 6.9 0H1.725Z" fill="#E7440E"/>
</svg>
