<svg width="15" height="15" viewBox="0 0 15 15" fill="none" xmlns="http://www.w3.org/2000/svg">
<mask id="path-1-inside-1_106_1312" fill="white">
<path d="M11.2732 1.42583L10.6006 0.623449C10.2682 0.227143 9.78122 0 9.26421 0H5.73615C5.2192 0 4.73216 0.227143 4.39977 0.623449L3.72688 1.42583C1.29302 4.32952 1.28261 9.04518 3.69492 11.9649L2.13501 14.6786L2.69451 15L4.14021 12.485C5.05811 13.4696 6.24088 14.0086 7.50002 14.0086C8.7592 14.0086 9.94227 13.4696 10.8597 12.4847L12.3059 15L12.8654 14.6787L11.3052 11.965C13.7175 9.04524 13.7068 4.32931 11.2732 1.42583ZM7.50033 13.3634C5.5506 13.3634 4.22148 11.5895 4.22148 11.5895C1.05465 7.43131 2.91357 2.93357 4.89437 1.03803C5.12981 0.812724 5.4104 0.645184 5.73615 0.645184H9.26421C9.58998 0.645184 9.86953 0.814194 10.106 1.03803C11.6594 2.50867 14.2619 7.0043 10.7792 11.5892C10.7792 11.5892 9.56188 13.3634 7.50033 13.3634Z"/>
</mask>
<path d="M11.2732 1.42583L10.6006 0.623449C10.2682 0.227143 9.78122 0 9.26421 0H5.73615C5.2192 0 4.73216 0.227143 4.39977 0.623449L3.72688 1.42583C1.29302 4.32952 1.28261 9.04518 3.69492 11.9649L2.13501 14.6786L2.69451 15L4.14021 12.485C5.05811 13.4696 6.24088 14.0086 7.50002 14.0086C8.7592 14.0086 9.94227 13.4696 10.8597 12.4847L12.3059 15L12.8654 14.6787L11.3052 11.965C13.7175 9.04524 13.7068 4.32931 11.2732 1.42583ZM7.50033 13.3634C5.5506 13.3634 4.22148 11.5895 4.22148 11.5895C1.05465 7.43131 2.91357 2.93357 4.89437 1.03803C5.12981 0.812724 5.4104 0.645184 5.73615 0.645184H9.26421C9.58998 0.645184 9.86953 0.814194 10.106 1.03803C11.6594 2.50867 14.2619 7.0043 10.7792 11.5892C10.7792 11.5892 9.56188 13.3634 7.50033 13.3634Z" fill="white"/>
<path d="M11.2732 1.42583L12.806 0.141087L12.8059 0.140994L11.2732 1.42583ZM10.6006 0.623449L12.1333 -0.661383L12.133 -0.661711L10.6006 0.623449ZM4.39977 0.623449L2.86739 -0.66178L2.86731 -0.661692L4.39977 0.623449ZM3.72688 1.42583L2.19443 0.140685L2.19411 0.141067L3.72688 1.42583ZM3.69492 11.9649L5.42887 12.9616L6.11973 11.7597L5.23675 10.691L3.69492 11.9649ZM2.13501 14.6786L0.401063 13.6819L-0.595967 15.4164L1.13888 16.4129L2.13501 14.6786ZM2.69451 15L1.69838 16.7343L3.43208 17.7301L4.42846 15.9967L2.69451 15ZM4.14021 12.485L5.60313 11.1212L3.75613 9.13991L2.40626 11.4883L4.14021 12.485ZM10.8597 12.4847L12.5935 11.4878L11.243 9.13877L9.39619 11.1215L10.8597 12.4847ZM12.3059 15L10.572 15.9969L11.5684 17.7299L13.3019 16.7343L12.3059 15ZM12.8654 14.6787L13.8614 16.413L15.5966 15.4165L14.5992 13.6818L12.8654 14.6787ZM11.3052 11.965L9.76332 10.6911L8.88026 11.7599L9.5713 12.9618L11.3052 11.965ZM4.22148 11.5895L5.82206 10.3902L5.81735 10.3839L5.81258 10.3777L4.22148 11.5895ZM4.89437 1.03803L6.27715 2.483L6.27715 2.483L4.89437 1.03803ZM10.106 1.03803L11.481 -0.414363L11.4809 -0.414389L10.106 1.03803ZM10.7792 11.5892L9.18659 10.3794L9.15737 10.4178L9.13005 10.4577L10.7792 11.5892ZM12.8059 0.140994L12.1333 -0.661383L9.06787 1.90828L9.74049 2.71066L12.8059 0.140994ZM12.133 -0.661711C11.4207 -1.51111 10.3726 -2 9.26421 -2V2C9.1898 2 9.11577 1.96539 9.06815 1.90861L12.133 -0.661711ZM9.26421 -2H5.73615V2H9.26421V-2ZM5.73615 -2C4.62776 -2 3.57973 -1.5111 2.86739 -0.66178L5.93215 1.90868C5.88459 1.96539 5.81063 2 5.73615 2V-2ZM2.86731 -0.661692L2.19443 0.140685L5.25933 2.71097L5.93222 1.90859L2.86731 -0.661692ZM2.19411 0.141067C-0.860985 3.78592 -0.871824 9.5776 2.1531 13.2388L5.23675 10.691C3.43705 8.51277 3.44703 4.87312 5.25965 2.71059L2.19411 0.141067ZM1.96097 10.9682L0.401063 13.6819L3.86896 15.6753L5.42887 12.9616L1.96097 10.9682ZM1.13888 16.4129L1.69838 16.7343L3.69065 13.2657L3.13115 12.9444L1.13888 16.4129ZM4.42846 15.9967L5.87415 13.4817L2.40626 11.4883L0.960565 14.0033L4.42846 15.9967ZM2.67729 13.8487C3.94118 15.2045 5.64044 16.0086 7.50002 16.0086V12.0086C6.84132 12.0086 6.17505 11.7347 5.60313 11.1212L2.67729 13.8487ZM7.50002 16.0086C9.35947 16.0086 11.0594 15.2046 12.3232 13.8478L9.39619 11.1215C8.82515 11.7346 8.15893 12.0086 7.50002 12.0086V16.0086ZM9.12583 13.4815L10.572 15.9969L14.0397 14.0031L12.5935 11.4878L9.12583 13.4815ZM13.3019 16.7343L13.8614 16.413L11.8693 12.9443L11.3098 13.2657L13.3019 16.7343ZM14.5992 13.6818L13.039 10.9681L9.5713 12.9618L11.1315 15.6755L14.5992 13.6818ZM12.847 13.2389C15.8719 9.5776 15.8608 3.78567 12.806 0.141087L9.74041 2.71057C11.5528 4.87294 11.563 8.51289 9.76332 10.6911L12.847 13.2389ZM7.50033 11.3634C7.13696 11.3634 6.74038 11.1924 6.34989 10.8917C6.16706 10.751 6.02045 10.6079 5.92239 10.5027C5.87436 10.4512 5.84076 10.4118 5.82306 10.3904C5.81429 10.3798 5.80967 10.3739 5.80939 10.3736C5.80926 10.3734 5.81023 10.3746 5.81233 10.3774C5.81338 10.3787 5.81472 10.3805 5.81634 10.3826C5.81715 10.3837 5.81803 10.3849 5.81898 10.3861C5.81946 10.3868 5.81995 10.3874 5.82047 10.3881C5.82072 10.3884 5.82112 10.389 5.82125 10.3892C5.82165 10.3897 5.82206 10.3902 4.22148 11.5895C2.6209 12.7887 2.62132 12.7892 2.62174 12.7898C2.62189 12.79 2.62232 12.7906 2.62262 12.791C2.62321 12.7918 2.62383 12.7926 2.62447 12.7934C2.62575 12.7951 2.62711 12.7969 2.62857 12.7989C2.63148 12.8027 2.63475 12.807 2.63838 12.8117C2.64562 12.8212 2.6543 12.8324 2.66438 12.8452C2.68452 12.8708 2.71036 12.9031 2.74174 12.941C2.80434 13.0166 2.88981 13.1158 2.99685 13.2306C3.20893 13.458 3.51646 13.7584 3.90962 14.0611C4.67113 14.6475 5.91397 15.3634 7.50033 15.3634V11.3634ZM5.81258 10.3777C3.44419 7.26791 4.79216 3.90407 6.27715 2.483L3.51159 -0.406937C1.03498 1.96308 -1.3349 7.5947 2.63038 12.8012L5.81258 10.3777ZM6.27715 2.483C6.32622 2.43603 6.13549 2.64518 5.73615 2.64518V-1.35482C4.68531 -1.35482 3.93339 -0.810585 3.51159 -0.406935L6.27715 2.483ZM5.73615 2.64518H9.26421V-1.35482H5.73615V2.64518ZM9.26421 2.64518C9.06893 2.64518 8.91517 2.59212 8.82264 2.54576C8.73981 2.50426 8.71034 2.47086 8.73104 2.49045L11.4809 -0.414389C11.0702 -0.803246 10.3202 -1.35482 9.26421 -1.35482V2.64518ZM8.73101 2.49042C9.24534 2.97734 10.0612 4.12101 10.3769 5.5712C10.6728 6.93001 10.5444 8.59191 9.18659 10.3794L12.3718 12.7989C14.4968 10.0015 14.8085 7.1232 14.2854 4.72032C13.7822 2.40882 12.5201 0.569363 11.481 -0.414363L8.73101 2.49042ZM10.7792 11.5892C9.13005 10.4577 9.13048 10.457 9.13091 10.4564C9.13105 10.4562 9.13147 10.4556 9.13175 10.4552C9.1323 10.4544 9.13283 10.4536 9.13335 10.4529C9.13438 10.4514 9.13535 10.45 9.13626 10.4487C9.13807 10.4461 9.13962 10.4438 9.14092 10.442C9.14352 10.4383 9.1451 10.4361 9.14569 10.4353C9.14685 10.4337 9.14409 10.4376 9.13753 10.4461C9.12426 10.4633 9.0965 10.4984 9.05518 10.5453C8.9707 10.6414 8.84076 10.7746 8.6738 10.9063C8.32946 11.1781 7.93512 11.3634 7.50033 11.3634V15.3634C9.12709 15.3634 10.3722 14.6616 11.1519 14.0462C11.547 13.7344 11.8502 13.4241 12.0584 13.1874C12.1634 13.0681 12.2469 12.9645 12.3082 12.8847C12.339 12.8447 12.3644 12.8104 12.3844 12.7828C12.3944 12.769 12.4031 12.7569 12.4104 12.7465C12.4141 12.7413 12.4174 12.7365 12.4204 12.7322C12.4219 12.7301 12.4233 12.728 12.4246 12.7261C12.4253 12.7251 12.4259 12.7242 12.4266 12.7233C12.4269 12.7228 12.4273 12.7222 12.4275 12.7219C12.4279 12.7213 12.4284 12.7206 10.7792 11.5892Z" fill="white" mask="url(#path-1-inside-1_106_1312)"/>
<path d="M10.219 9.65332L10.6752 10.1095L9.17029 11.6144L8.7141 11.1582L10.219 9.65332ZM4.32568 10.1095L5.83061 11.6144L6.28676 11.1582L4.78187 9.65332L4.32568 10.1095Z" fill="white"/>
<path d="M10.6273 7.26743C11.0277 6.75296 11.166 6.0955 11.0063 5.46354L10.5501 3.65904C10.3142 2.72623 9.47743 2.07471 8.51562 2.07471L6.48459 2.07504C5.52217 2.07504 4.68573 2.72653 4.45013 3.65904L3.99361 5.46388C3.83391 6.09581 3.97219 6.75296 4.37259 7.26743C4.773 7.78159 5.37631 8.07645 6.02813 8.07645H8.97181C9.62363 8.07645 10.2269 7.78159 10.6273 7.26743ZM4.88177 6.87079C4.60421 6.51483 4.50876 6.0596 4.61933 5.62199L5.07579 3.81719C5.23868 3.17133 5.81801 2.72023 6.48462 2.72023L8.51565 2.71989C9.18193 2.71989 9.7613 3.17105 9.92449 3.81719L10.3807 5.62169C10.4912 6.05929 10.3958 6.51483 10.1182 6.87079C9.84101 7.22712 9.42328 7.43127 8.97184 7.43127H6.02816C5.5767 7.43127 5.15896 7.22712 4.88177 6.87079Z" fill="white"/>
</svg>
