<svg width="36" height="29" viewBox="0 0 36 29" fill="none" xmlns="http://www.w3.org/2000/svg">
<path fill-rule="evenodd" clip-rule="evenodd" d="M35.4716 3.4304C34.1684 4.01456 32.7632 4.40711 31.29 4.58526C32.794 3.68105 33.9481 2.24447 34.4926 0.535482C33.0874 1.37547 31.5289 1.98553 29.8704 2.31179C28.5414 0.887637 26.6513 0 24.5585 0C20.5375 0 17.2782 3.27918 17.2782 7.32275C17.2782 7.89344 17.3441 8.45586 17.4697 8.98927C11.4197 8.68165 6.0552 5.76912 2.46655 1.33819C1.84168 2.42262 1.48343 3.68105 1.48343 5.0182C1.48343 7.56097 2.76406 9.80233 4.72104 11.1136C3.52894 11.0773 2.40479 10.7469 1.42167 10.199V10.2922C1.42167 13.8407 3.93146 16.7978 7.26069 17.4721C6.64919 17.6357 6.00579 17.7248 5.34694 17.7248C4.87649 17.7248 4.42044 17.6823 3.97572 17.5974C4.90222 20.5068 7.59114 22.6208 10.7742 22.6788C8.28293 24.6415 5.1462 25.814 1.73668 25.814C1.14783 25.814 0.566196 25.7798 0 25.7104C3.21908 27.786 7.04553 28.9999 11.1571 28.9999C24.5461 28.9999 31.8665 17.8449 31.8665 8.16792C31.8665 7.85201 31.8562 7.53508 31.8449 7.22331C33.2635 6.19274 34.4967 4.90324 35.4716 3.4304Z" fill="white"/>
</svg>
