<svg width="316" height="57" viewBox="0 0 316 57" fill="none" xmlns="http://www.w3.org/2000/svg">
<path d="M0.0102897 28.0871C0.0159682 12.575 12.5956 0.00460336 28.1076 0.0102819L287.913 0.105389C303.425 0.111068 315.995 12.6907 315.99 28.2027C315.984 43.7148 303.404 56.2852 287.892 56.2795L28.0871 56.1844C12.575 56.1787 0.00461116 43.5991 0.0102897 28.0871Z" fill="#975296"/>
<path d="M141.04 31.1167C141.087 30.8398 141.064 30.6073 140.97 30.4192C140.881 30.2258 140.745 30.0638 140.562 29.9331C140.385 29.7972 140.184 29.6822 139.959 29.5881C139.74 29.494 139.52 29.4077 139.301 29.3292C138.899 29.1723 138.502 28.9946 138.11 28.7959C137.723 28.5972 137.371 28.362 137.052 28.0902C136.734 27.8132 136.486 27.4918 136.308 27.126C136.131 26.755 136.058 26.3213 136.089 25.825C136.126 25.2608 136.285 24.7723 136.568 24.3597C136.85 23.9471 137.208 23.6102 137.642 23.3492C138.081 23.0829 138.556 22.8871 139.068 22.7619C139.586 22.6367 140.092 22.5794 140.589 22.5901C141.299 22.6008 141.931 22.7499 142.485 23.0375C143.039 23.3198 143.472 23.7222 143.785 24.2448C144.104 24.7621 144.253 25.3839 144.231 26.1101L141.959 26.1093C141.98 25.7645 141.936 25.4667 141.826 25.2158C141.721 24.9598 141.552 24.7638 141.317 24.6279C141.087 24.4867 140.792 24.4109 140.431 24.4003C140.123 24.395 139.82 24.4445 139.522 24.5489C139.23 24.648 138.976 24.8047 138.762 25.0188C138.553 25.2277 138.422 25.4993 138.37 25.8337C138.328 26.0792 138.362 26.2908 138.471 26.4685C138.586 26.6462 138.74 26.7977 138.933 26.9232C139.132 27.0487 139.341 27.1558 139.56 27.2447C139.785 27.3284 139.986 27.4042 140.164 27.4722C140.587 27.6239 140.994 27.8043 141.386 28.0134C141.783 28.2225 142.133 28.4708 142.436 28.7583C142.739 29.0405 142.971 29.375 143.133 29.7617C143.295 30.1431 143.36 30.5872 143.328 31.094C143.281 31.6739 143.124 32.1702 142.858 32.5828C142.591 32.9902 142.246 33.3245 141.823 33.5855C141.4 33.8414 140.937 34.0293 140.436 34.1493C139.934 34.2693 139.424 34.3265 138.907 34.3211C138.343 34.3105 137.813 34.2215 137.317 34.0541C136.82 33.8867 136.387 33.6462 136.016 33.3326C135.645 33.0138 135.358 32.6245 135.154 32.1646C134.956 31.6996 134.865 31.1693 134.881 30.5737L137.177 30.5823C137.156 30.901 137.179 31.1805 137.247 31.4209C137.32 31.656 137.435 31.8546 137.592 32.0166C137.753 32.1786 137.952 32.3015 138.187 32.3852C138.427 32.4636 138.707 32.5055 139.025 32.5109C139.334 32.511 139.632 32.4641 139.919 32.3701C140.206 32.2762 140.452 32.1274 140.656 31.9237C140.86 31.7148 140.988 31.4458 141.04 31.1167Z" fill="white"/>
<path d="M148.001 25.6805L146.533 34.1593L144.323 34.1585L145.799 25.6797L148.001 25.6805ZM146.043 23.509C146.032 23.1537 146.147 22.869 146.388 22.6549C146.633 22.4408 146.929 22.3312 147.274 22.3261C147.603 22.321 147.89 22.4203 148.135 22.6242C148.381 22.8228 148.504 23.0919 148.503 23.4315C148.514 23.7868 148.396 24.0715 148.151 24.2856C147.905 24.4997 147.612 24.6093 147.273 24.6144C146.944 24.6195 146.656 24.5227 146.411 24.3241C146.17 24.1255 146.048 23.8538 146.043 23.509Z" fill="white"/>
<path d="M154.992 25.683L157.013 25.6838L155.608 33.8727C155.503 34.6511 155.244 35.3145 154.831 35.863C154.418 36.4114 153.893 36.8265 153.255 37.1084C152.623 37.3903 151.92 37.5233 151.147 37.5073C150.771 37.4968 150.4 37.4391 150.034 37.3345C149.669 37.2299 149.327 37.0757 149.008 36.8718C148.689 36.6731 148.413 36.4249 148.178 36.127L149.267 34.8265C149.497 35.1296 149.769 35.3648 150.082 35.5321C150.396 35.7046 150.743 35.7962 151.124 35.8067C151.532 35.8173 151.892 35.7443 152.206 35.5877C152.519 35.4311 152.778 35.2091 152.982 34.9219C153.186 34.6346 153.322 34.2924 153.39 33.8954L154.474 27.5323L154.992 25.683ZM148.728 30.0772L148.752 29.9126C148.815 29.3797 148.94 28.8521 149.129 28.3297C149.317 27.8021 149.57 27.3242 149.889 26.8959C150.208 26.4676 150.598 26.1281 151.057 25.8775C151.517 25.6269 152.053 25.5095 152.664 25.5254C153.228 25.5413 153.685 25.6826 154.035 25.9491C154.385 26.2105 154.652 26.5528 154.834 26.976C155.017 27.3941 155.137 27.8486 155.194 28.3398C155.257 28.8309 155.278 29.309 155.256 29.7739L155.217 30.1422C155.133 30.6124 154.995 31.0956 154.801 31.5919C154.608 32.0882 154.357 32.5478 154.048 32.9709C153.74 33.3887 153.369 33.723 152.935 33.9736C152.507 34.2242 152.018 34.3416 151.47 34.3257C150.9 34.3098 150.427 34.1712 150.051 33.9099C149.68 33.6485 149.388 33.3114 149.174 32.8986C148.965 32.4805 148.827 32.026 148.759 31.5348C148.691 31.0385 148.681 30.5526 148.728 30.0772ZM150.962 29.9056L150.938 30.078C150.912 30.3131 150.902 30.5717 150.907 30.8538C150.917 31.1307 150.959 31.3972 151.032 31.6532C151.11 31.9092 151.238 32.1209 151.416 32.2881C151.593 32.4502 151.839 32.5365 152.152 32.547C152.565 32.5681 152.918 32.482 153.21 32.2888C153.508 32.0956 153.746 31.8397 153.924 31.521C154.101 31.1972 154.224 30.855 154.292 30.4946L154.442 29.4523C154.463 29.2016 154.46 28.9508 154.434 28.7C154.408 28.4492 154.345 28.2193 154.246 28.0103C154.152 27.8013 154.011 27.6314 153.823 27.5007C153.64 27.3701 153.397 27.302 153.094 27.2967C152.744 27.2809 152.441 27.3539 152.185 27.5158C151.934 27.6777 151.725 27.8918 151.558 28.1582C151.391 28.4194 151.257 28.7041 151.158 29.0123C151.059 29.3205 150.993 29.6182 150.962 29.9056Z" fill="white"/>
<path d="M160.524 27.6207L159.385 34.164L157.175 34.1632L158.651 25.6844L160.72 25.6851L160.524 27.6207ZM159.872 29.6267L159.324 29.6422C159.381 29.1354 159.497 28.6339 159.669 28.1377C159.842 27.6414 160.077 27.1948 160.375 26.7978C160.678 26.3956 161.047 26.0797 161.48 25.85C161.919 25.6203 162.429 25.5107 163.009 25.5214C163.479 25.5372 163.865 25.6366 164.168 25.8196C164.477 25.9974 164.712 26.2378 164.873 26.5409C165.04 26.8439 165.147 27.1862 165.194 27.5676C165.246 27.949 165.252 28.3461 165.21 28.7588L164.299 34.1658L162.081 34.165L163 28.7345C163.031 28.4576 163.023 28.212 162.976 27.9978C162.929 27.7836 162.825 27.6137 162.663 27.4883C162.506 27.3629 162.277 27.2975 161.974 27.2921C161.639 27.2816 161.349 27.3441 161.104 27.4799C160.863 27.6156 160.659 27.7984 160.492 28.0282C160.325 28.2581 160.192 28.5114 160.092 28.7883C159.993 29.0651 159.92 29.3446 159.872 29.6267Z" fill="white"/>
<path d="M174.467 22.7592L172.488 34.1688L170.192 34.168L172.179 22.7584L174.467 22.7592Z" fill="white"/>
<path d="M177.765 27.6271L176.626 34.1704L174.416 34.1695L175.892 25.6907L177.961 25.6914L177.765 27.6271ZM177.113 29.633L176.565 29.6485C176.622 29.1417 176.738 28.6402 176.91 28.144C177.083 27.6477 177.318 27.2011 177.616 26.8041C177.919 26.402 178.288 26.086 178.721 25.8563C179.16 25.6266 179.67 25.517 180.25 25.5277C180.72 25.5435 181.106 25.643 181.409 25.8259C181.717 26.0037 181.953 26.2441 182.114 26.5472C182.281 26.8503 182.388 27.1925 182.435 27.5739C182.487 27.9553 182.492 28.3524 182.451 28.7651L181.539 34.1722L179.322 34.1713L180.241 28.7408C180.272 28.4639 180.264 28.2183 180.217 28.0041C180.17 27.7899 180.066 27.6201 179.904 27.4946C179.747 27.3692 179.517 27.3038 179.214 27.2984C178.88 27.2879 178.59 27.3505 178.345 27.4862C178.104 27.622 177.9 27.8047 177.733 28.0346C177.566 28.2644 177.432 28.5177 177.333 28.7946C177.234 29.0714 177.16 29.3509 177.113 29.633Z" fill="white"/>
</svg>
