<svg width="11" height="25" viewBox="0 0 11 25" fill="none" xmlns="http://www.w3.org/2000/svg">
<path d="M6.48924 0.335831C6.48924 0.335831 6.76735 1.79661 7.47808 2.92754C8.0652 3.82285 8.83773 4.85953 9.05404 5.80197C9.51756 7.92246 9.33215 17.606 9.64116 18.3128C9.91927 19.0432 10.7845 22.8366 10.5064 23.779C10.2283 24.7214 6.45834 25.4283 6.36564 24.6979C6.27293 23.9675 7.19997 18.5249 7.16907 17.9594C6.95276 14.4017 2.87381 8.13451 2.96651 6.391C3.05922 4.64748 9.84692e-07 0.924855 9.84692e-07 0.924855C9.84692e-07 0.924855 4.17166 -0.67729 6.48924 0.335831Z" fill="#F2AB88"/>
</svg>
