<svg width="21" height="17" viewBox="0 0 21 17" fill="none" xmlns="http://www.w3.org/2000/svg">
<path opacity="0.65" d="M0.115669 3.36086C1.51404 4.19528 2.33482 6.30451 3.06441 7.50978C4.09798 9.2018 5.19236 10.1058 7.5635 10.8938C8.96187 11.3574 10.0866 11.172 11.181 10.7547C13.1266 10.8011 14.3122 10.2448 15.5889 8.85413C16.9265 7.41707 17.8689 5.72505 18.5985 4.10257C19.2368 2.71187 20.0576 1.32117 21 0C20.2704 1.57613 19.4192 3.1059 18.9328 4.75156C18.1121 7.60249 17.3521 12.5163 17.1697 15.4136L17.1089 15.4368C14.7985 16.0858 12.2754 16.3871 9.75225 16.3407C7.22911 16.3871 4.70597 16.1089 2.39562 15.4368L2.33482 15.4136C2.12203 12.5163 1.39244 7.60249 0.571659 4.75156C0.419663 4.24164 0.237268 3.75489 0.0244733 3.24497C-0.0363263 3.26815 0.0244713 3.3145 0.115669 3.36086Z" fill="#CFB6B5"/>
</svg>
