<svg width="14" height="21" viewBox="0 0 14 21" fill="none" xmlns="http://www.w3.org/2000/svg">
<path fill-rule="evenodd" clip-rule="evenodd" d="M13.4033 0L13.6283 0.0950822C13.8533 0.190152 13.8533 0.190233 13.8532 0.190344L13.8525 0.192003L13.8504 0.196728L13.8425 0.214768C13.8355 0.230601 13.8251 0.254033 13.8112 0.284977C13.7833 0.346864 13.7414 0.438798 13.6845 0.560082C13.5709 0.80265 13.3977 1.16262 13.1587 1.63441C12.6807 2.578 11.9395 3.96889 10.8846 5.7625C8.77473 9.34974 5.41028 14.5478 0.387876 21L0 20.705C5.00932 14.2696 8.36204 9.08888 10.4615 5.51933C11.5112 3.73455 12.2476 2.35252 12.7211 1.41779C12.9578 0.950426 13.1288 0.594883 13.2404 0.356732C13.2962 0.237656 13.3372 0.147927 13.3641 0.0882423C13.3775 0.0583997 13.3874 0.036068 13.3939 0.0213341L13.4011 0.0049425L13.4028 0.00104085L13.4033 0Z" fill="#E64504"/>
</svg>
