<svg width="7" height="4" viewBox="0 0 7 4" fill="none" xmlns="http://www.w3.org/2000/svg">
<path opacity="0.55" d="M6.04977 0.02415C6.04977 0.0483004 6.04977 0.0966014 6.04977 0.193203C6.04977 0.193203 6.04977 0.193203 6.04977 0.217353C6.04977 0.289804 6.04977 0.386406 6.08145 0.507158V0.531309C6.08145 0.652061 6.11312 0.772812 6.1448 0.917714V0.941865C6.17647 1.08677 6.20814 1.25582 6.23982 1.40072V1.42487C6.27149 1.59392 6.33484 1.76298 6.36652 1.93203V1.95618C6.42986 2.12523 6.49321 2.31844 6.55656 2.48749V2.51164C6.61991 2.68069 6.71493 2.84974 6.80996 3.0188C6.80996 3.0188 6.80995 3.04295 6.84163 3.04295C6.90498 3.1154 6.93665 3.212 7 3.28445C6.84163 3.33275 5.06787 3.86406 3.61086 3.86406C1.48869 3.86406 0.411767 3.38105 2.01865e-06 3.18785C0.918554 1.88373 0.918553 0 0.918553 0H3.45249L6.04977 0.02415C6.0181 0.02415 6.0181 -3.68866e-07 6.04977 0.02415Z" fill="#DCB890"/>
</svg>
