<svg width="11" height="4" viewBox="0 0 11 4" fill="none" xmlns="http://www.w3.org/2000/svg">
<path opacity="0.5" d="M1.71804 1.49708C2.17823 1.28655 2.60775 1.02924 2.9759 0.748539C2.45435 1.33334 2.20891 2.12866 1.16582 2.31579C2.9759 2.31579 4.54054 1.33334 5.30753 0.140351C5.30753 0.725147 5.06209 1.12281 4.54054 1.52047C5.58364 1.19298 6.47334 0.63158 7.30168 0C7.54712 0.725147 8.03799 1.35673 8.77429 1.94152C9.08109 2.17544 9.41856 2.40936 9.75603 2.59649C10.3696 2.92398 10.7684 3.4386 10.8912 4.00001C9.17312 3.25147 7.7312 1.96491 7.27101 0.725147C6.84149 1.68421 3.77356 3.29825 0 3.46199C0.0306798 3.36842 0.0306808 3.29825 0.0613606 3.20468C0.245436 2.50293 0.859023 1.89474 1.71804 1.49708Z" fill="#995235"/>
</svg>
