<svg width="16" height="10" viewBox="0 0 16 10" fill="none" xmlns="http://www.w3.org/2000/svg">
<path d="M10.5468 7.92732C10.0075 8.22431 9.4382 8.54415 8.98876 8.93252C8.80899 9.06959 8.65918 9.22951 8.4794 9.36658C7.64045 9.29804 6.8015 9.18382 6.02247 8.95536C4.10487 8.42992 2.27716 7.35619 0.928841 6.19108C0.419477 5.75702 0.329587 5.07166 0 4.54622C1.10861 4.31776 1.97753 4.18069 2.81648 3.92939C5.06367 3.24403 5.00375 0 5.00375 0H9.79775C9.79775 0 9.79775 3.33542 12.0449 4.04362C13.1236 4.3863 14.5918 4.61475 16 4.93459C14.6816 6.0997 12.3446 6.92213 10.5468 7.92732Z" fill="#F2AB88"/>
</svg>
