<svg width="25" height="27" viewBox="0 0 25 27" fill="none" xmlns="http://www.w3.org/2000/svg">
<path d="M23.9821 24.5932L23.9819 24.5931L18.2203 18.2736C19.6175 16.3946 20.4557 14.0053 20.4557 11.4034C20.4557 5.4327 16.0206 0.5 10.4778 0.5C4.93501 0.5 0.5 5.4327 0.5 11.4034C0.5 17.3742 4.93501 22.3069 10.4778 22.3069C12.8477 22.3069 15.0227 21.3969 16.7302 19.8946L22.4313 26.1524C22.636 26.3771 22.9138 26.5 23.2067 26.5C23.4995 26.5 23.7773 26.3771 23.9821 26.1524C24.3798 25.7158 24.3798 25.0298 23.9821 24.5932ZM18.3129 11.4034C18.3129 16.2152 14.7532 20.0525 10.4778 20.0525C6.20248 20.0525 2.64275 16.2152 2.64275 11.4034C2.64275 6.59171 6.20248 2.75435 10.4778 2.75435C14.7534 2.75435 18.3129 6.58678 18.3129 11.4034Z" fill="#019782" stroke="#019782"/>
</svg>
