<svg width="20" height="21" viewBox="0 0 20 21" fill="none" xmlns="http://www.w3.org/2000/svg">
<path d="M8.58842 0C5.16325 0 2.0941 1.52307 0 3.91919C0.749037 3.74518 1.52307 3.64118 2.31511 3.60418C2.26811 3.50617 2.22511 3.41717 2.18911 3.33916C3.95019 1.94109 6.1693 1.10005 8.58742 1.10005C9.28045 1.10005 9.95849 1.17106 10.6125 1.30206C9.99649 2.0631 9.05244 3.40617 8.65542 4.92124C8.91944 5.05125 9.17645 5.18825 9.42646 5.33426C9.79348 3.67118 10.9705 2.15111 11.5056 1.52807C13.3026 2.0601 14.8917 3.07115 16.1348 4.41022C15.2727 4.81724 13.5877 5.67328 11.6326 6.95534C11.8396 7.14535 12.0446 7.33736 12.2386 7.54037C14.2657 6.2253 15.9688 5.39226 16.6918 5.06025C17.8419 6.52732 18.6099 8.31041 18.8299 10.2595C17.9809 10.3955 16.1698 10.6185 14.3377 10.4095C14.4907 10.6925 14.6257 10.9845 14.7577 11.2796C15.1537 11.3096 15.5478 11.3286 15.9228 11.3286C17.1568 11.3286 18.2369 11.1925 18.8819 11.0885C18.8859 11.1975 18.8999 11.3036 18.8999 11.4136C18.8999 14.3667 17.6369 17.0178 15.6398 18.8989C15.5228 19.528 15.3547 20.139 15.1497 20.733C18.0779 18.6659 20 15.2607 20 11.4136C20 5.12025 14.8807 0 8.58842 0Z" fill="#B2B2B2"/>
</svg>
