<svg width="7" height="26" viewBox="0 0 7 26" fill="none" xmlns="http://www.w3.org/2000/svg">
<path d="M6.84736 1.54036C6.84736 1.54036 5.61369 4.90309 5.79874 5.53802C5.98379 6.19645 6.72399 8.00715 5.7679 11.7932C4.84265 15.5792 4.53423 17.4604 4.84265 18.7068C5.12022 19.9531 5.98379 25.5028 4.0716 25.9261C2.77625 26.2082 2.00521 25.7379 1.97437 23.551C1.97437 22.6104 1.88185 21.2464 2.31363 19.6944C2.46784 19.1536 2.46784 18.6127 2.40615 18.0718C2.25195 17.0607 1.97437 15.3911 1.54259 13.6274C0.833228 10.8055 -0.338754 7.772 0.0930291 5.5145C0.956596 0.9995 0.864071 0.294028 0.864071 0.294028C0.864071 0.294028 3.7015 -0.905264 6.84736 1.54036Z" fill="#F2AB88"/>
</svg>
