<svg width="6" height="7" viewBox="0 0 6 7" fill="none" xmlns="http://www.w3.org/2000/svg">
<path d="M3.15918 6.59442C4.29965 6.59442 5.35238 5.9774 5.92261 4.97474C6.09807 4.66623 5.96648 4.31916 5.61556 4.1649C5.26465 4.01065 4.86987 4.12634 4.69442 4.43485C4.34351 5.05187 3.77328 5.39894 3.20304 5.39894C2.19417 5.39894 1.40462 4.47341 1.40462 3.31649C1.40462 2.15958 2.19417 1.23405 3.20304 1.23405C3.72941 1.23405 4.25578 1.50399 4.60669 2.04389C4.82601 2.3524 5.22079 2.42953 5.5717 2.23671C5.87875 2.04389 6.01034 1.69681 5.79102 1.3883C5.17692 0.539894 4.21192 0 3.20304 0C1.44848 0 0.000971387 1.50399 0.000971387 3.31649C-0.0428926 5.09043 1.40462 6.59442 3.15918 6.59442Z" fill="white"/>
</svg>
