<svg width="2" height="3" viewBox="0 0 2 3" fill="none" xmlns="http://www.w3.org/2000/svg">
<path d="M0.707319 3.00001C0.740383 3.00001 0.773449 3.00001 0.806513 3.00001C1.07103 2.9748 1.53392 2.89917 1.73231 2.69749C1.8315 2.59665 1.86457 2.49581 1.8315 2.36976C1.79844 2.26892 1.66618 2.11766 1.4678 1.91598C1.26941 1.71429 1.07103 1.51261 0.971834 1.31093C0.70732 0.756306 0.674255 0.100841 0.674255 0.100841C0.674255 0.0504208 0.608127 0 0.541998 0C0.47587 0 0.409742 0.0504208 0.409742 0.100841C0.409742 0.126051 0.442806 0.806727 0.740384 1.38656C0.839577 1.61345 1.07103 1.84035 1.26941 2.04203C1.40167 2.19329 1.56699 2.34455 1.56699 2.39497C1.60005 2.4706 1.56699 2.52102 1.53392 2.57144C1.43473 2.67228 1.17022 2.77312 0.806513 2.79833C0.608128 2.82354 0.343613 2.77312 0.277485 2.69749C0.277485 2.67228 0.277485 2.67228 0.277485 2.67228C0.310549 2.62186 0.244421 2.54623 0.178293 2.54623C0.112164 2.52102 0.0129718 2.57144 0.0129718 2.62186C-0.0200925 2.69749 0.0129719 2.79833 0.0791003 2.84875C0.178293 2.94959 0.47587 3.00001 0.707319 3.00001Z" fill="#CE7959"/>
</svg>
