<svg width="22" height="20" viewBox="0 0 22 20" fill="none" xmlns="http://www.w3.org/2000/svg">
<path d="M10.3535 20C4.40701 19.954 -1.92375e-06 19.1254 -1.92375e-06 19.1254C-1.92375e-06 19.1254 0.754624 19.2175 1.53944 9.32106C2.17332 0.529344 8.84422 0 10.3233 0C10.5346 0 10.7157 0 10.927 0C12.4061 0 19.0769 0.529344 19.741 9.32106C20.4956 19.2175 21.2805 19.1254 21.2805 19.1254C21.2805 19.1254 16.8433 19.954 10.927 20C10.8364 20 10.7459 20 10.6553 20C10.5346 20 10.444 20 10.3535 20Z" fill="#995235"/>
</svg>
