<svg width="24" height="20" viewBox="0 0 24 20" fill="none" xmlns="http://www.w3.org/2000/svg">
<path d="M6.42 0C6.63 0.228739 10.44 4.48328 11.88 4.48328C11.91 4.48328 12.03 4.48328 12.06 4.48328C13.5 4.48328 17.31 0.228739 17.52 0C19.47 0.503225 22.29 0.823459 24 1.82991C23.73 2.24164 23.49 2.69912 23.28 3.17947C22.53 4.87214 21.57 6.47331 21.06 8.23459C20.25 11.0481 19.5 15.8973 19.32 18.7566L19.26 18.7794C16.98 19.4199 14.49 19.7173 12 19.6715C9.51 19.7173 7.02 19.4428 4.74 18.7794L4.68 18.7566C4.47 15.8973 3.75 11.0481 2.94 8.23459C2.43 6.47331 1.47 4.87214 0.719999 3.17947C0.51 2.72199 0.269998 2.26451 0 1.82991C1.65 0.823459 4.47 0.503225 6.42 0Z" fill="#E95E68"/>
</svg>
