<svg width="15" height="9" viewBox="0 0 15 9" fill="none" xmlns="http://www.w3.org/2000/svg">
<path d="M7.49603 0C17.224 0 14.9838 5.10079 14.2473 6.76206C14.0018 7.27682 13.6335 7.81498 13.3267 8.23614C12.9891 8.7275 13.0812 8.16595 13.0812 8.16595C13.5722 5.38157 12.5288 3.41613 12.5288 3.41613C11.4854 1.42729 7.49603 1.14651 7.49603 1.14651C7.49603 1.14651 5.01033 2.92477 2.46326 3.41613C2.46326 3.41613 1.45057 5.40497 1.91089 8.16595C1.91089 8.16595 2.03364 8.7275 1.66539 8.23614C1.35851 7.81498 0.959571 7.27682 0.744758 6.76206C0.0082563 5.0774 -2.20125 0 7.49603 0Z" fill="#995235"/>
</svg>
