<svg width="40" height="17" viewBox="0 0 40 17" fill="none" xmlns="http://www.w3.org/2000/svg">
<path d="M15.1871 0.303308L9.95001 16.5446H6.53333L3.95741 3.5843C3.8 2.78512 3.66481 2.49385 3.18889 2.15684C2.41111 1.60801 1.12963 1.09527 0 0.775114L0.0759267 0.293677H5.57593C5.93564 0.292718 6.28373 0.459203 6.55718 0.762993C6.83063 1.06678 7.01136 1.4878 7.06667 1.94982L8.42779 11.3378L11.7926 0.281644L15.1871 0.303308ZM28.5741 11.2416C28.5889 6.95677 24.0148 6.72087 24.0463 4.80475C24.0556 4.22221 24.4834 3.60115 25.4167 3.44468C26.5097 3.30731 27.6109 3.55685 28.6037 4.16684L29.1722 0.722156C28.2051 0.250515 27.1812 0.00599653 26.1482 0C22.9537 0 20.7037 2.20739 20.6871 5.36803C20.6648 7.70781 22.2908 9.0101 23.5167 9.78762C24.7741 10.5844 25.1963 11.0947 25.1926 11.8072C25.1834 12.8977 24.1889 13.3767 23.2574 13.396C21.6334 13.4297 20.6889 12.8255 19.9389 12.3705L19.3537 15.9283C20.1074 16.3809 21.5019 16.7733 22.9482 16.7925C26.3426 16.7925 28.563 14.6116 28.5741 11.2343V11.2416ZM37.0111 16.5301H40L37.3908 0.303308H34.6315C34.337 0.301672 34.0489 0.414148 33.8038 0.626384C33.5587 0.838619 33.3679 1.14099 33.2556 1.49487L28.4056 16.5446H31.8L32.4741 14.1181H36.6204L37.0111 16.5301ZM33.4037 10.777L35.1056 4.70364L36.0852 10.8034L33.4037 10.777ZM19.8056 0.288865L17.1334 16.5301H13.9L16.5741 0.288865H19.8056Z" fill="white"/>
</svg>
