<svg width="25" height="25" viewBox="0 0 25 25" fill="none" xmlns="http://www.w3.org/2000/svg">
<g filter="url(#filter0_d_280_2124)">
<path fill-rule="evenodd" clip-rule="evenodd" d="M15.6574 2.06952C17.7516 2.06952 18.7985 2.06952 19.9258 2.42589C21.1566 2.87388 22.126 3.84321 22.5739 5.074C22.9303 6.20118 22.9303 7.24839 22.9303 9.34246V15.6574C22.9303 17.7516 22.9303 18.7985 22.5739 19.9258C22.126 21.1566 21.1566 22.126 19.9258 22.5738C18.7985 22.9303 17.7516 22.9303 15.6574 22.9303H9.34246C7.24821 22.9303 6.20118 22.9303 5.074 22.5738C3.84321 22.126 2.87388 21.1566 2.42589 19.9258C2.06952 18.7985 2.06952 17.7516 2.06952 15.6574V9.34246C2.06952 7.24839 2.06952 6.20118 2.42589 5.074C2.87388 3.84321 3.84321 2.87388 5.074 2.42589C6.20118 2.06952 7.24821 2.06952 9.34246 2.06952H15.6574Z" fill="#25D366"/>
<path d="M17.0002 7.80748C15.784 6.59002 14.167 5.91936 12.4441 5.91855C8.89458 5.91855 6.00501 8.80748 6.00388 12.3585C6.00323 13.4938 6.29992 14.6018 6.86338 15.5781L5.94988 18.9155L9.36378 18.0201C10.3046 18.5328 11.3636 18.8033 12.4416 18.8038H12.4443C15.9939 18.8038 18.8829 15.9143 18.8844 12.3635C18.8852 10.6429 18.2157 9.02478 17.0002 7.80748ZM12.4443 17.716H12.4422C11.4813 17.7156 10.5394 17.4576 9.71738 16.97L9.52191 16.8539L7.49604 17.3853L8.03654 15.4102L7.9093 15.2072C7.37332 14.3551 7.09022 13.3703 7.09086 12.3585C7.09184 9.40732 9.49329 7.00618 12.4459 7.00618C13.8758 7.00651 15.2196 7.56415 16.2304 8.57611C17.2411 9.58791 17.7973 10.9326 17.7969 12.363C17.796 15.3147 15.3945 17.716 12.4443 17.716ZM15.3804 13.7071C15.2194 13.6264 14.4283 13.2375 14.2807 13.1834C14.1331 13.1297 14.0262 13.103 13.9188 13.2641C13.8115 13.4251 13.5032 13.7878 13.4091 13.8951C13.3153 14.0025 13.2215 14.016 13.0605 13.9354C12.8994 13.8547 12.3811 13.6849 11.7669 13.1365C11.2883 12.7101 10.9652 12.1827 10.8715 12.0217C10.7777 11.8607 10.8614 11.7738 10.9421 11.6935C11.0146 11.6214 11.1032 11.5056 11.1835 11.4115C11.2639 11.3174 11.2907 11.2503 11.3444 11.1431C11.3981 11.0358 11.3714 10.9418 11.331 10.8613C11.2905 10.7806 10.9688 9.98856 10.8349 9.66633C10.7041 9.35251 10.5715 9.39503 10.4729 9.39018C10.3788 9.38565 10.2716 9.38436 10.1644 9.38436C10.0572 9.38436 9.88278 9.42462 9.73533 9.58581C9.58804 9.74685 9.17219 10.136 9.17219 10.9284C9.17219 11.7203 9.74875 12.4857 9.82926 12.5929C9.90978 12.7001 10.9639 14.3258 12.5782 15.0228C12.962 15.1884 13.2619 15.2875 13.4956 15.3619C13.881 15.4846 14.2319 15.467 14.5093 15.4256C14.8184 15.3795 15.4613 15.0364 15.5956 14.6605C15.7297 14.2848 15.7297 13.9627 15.6891 13.8954C15.6485 13.828 15.5411 13.7878 15.3804 13.7071Z" fill="white"/>
</g>
<defs>
<filter id="filter0_d_280_2124" x="0" y="0" width="25" height="25" filterUnits="userSpaceOnUse" color-interpolation-filters="sRGB">
<feFlood flood-opacity="0" result="BackgroundImageFix"/>
<feColorMatrix in="SourceAlpha" type="matrix" values="0 0 0 0 0 0 0 0 0 0 0 0 0 0 0 0 0 0 127 0" result="hardAlpha"/>
<feOffset/>
<feGaussianBlur stdDeviation="1"/>
<feColorMatrix type="matrix" values="0 0 0 0 0 0 0 0 0 0 0 0 0 0 0 0 0 0 0.1 0"/>
<feBlend mode="normal" in2="BackgroundImageFix" result="effect1_dropShadow_280_2124"/>
<feBlend mode="normal" in="SourceGraphic" in2="effect1_dropShadow_280_2124" result="shape"/>
</filter>
</defs>
</svg>
