<svg width="13" height="13" viewBox="0 0 13 13" fill="none" xmlns="http://www.w3.org/2000/svg">
<path d="M11.0527 1.88934C9.83626 0.67161 8.21893 0.000808583 6.49567 0C2.94535 0 0.0551453 2.88955 0.0540133 6.44134C0.0533665 7.57691 0.350117 8.68516 0.913699 9.6616L0 12.9998L3.41465 12.1042C4.35568 12.617 5.41492 12.8875 6.49309 12.888H6.49584C10.0462 12.888 12.9359 9.99797 12.9373 6.44635C12.9381 4.72536 12.2685 3.1069 11.0527 1.88934ZM6.49584 11.8H6.49373C5.53265 11.7997 4.59049 11.5416 3.76832 11.0538L3.57281 10.9377L1.5465 11.4693L2.08712 9.49374L1.95984 9.29062C1.42375 8.43838 1.14059 7.45336 1.14123 6.44134C1.1422 3.48952 3.54418 1.08787 6.49745 1.08787C7.92768 1.08819 9.2717 1.64595 10.2828 2.65814C11.2936 3.67016 11.85 5.01516 11.8496 6.44586C11.8487 9.39816 9.44668 11.8 6.49584 11.8ZM9.43261 7.79021C9.27154 7.70952 8.48026 7.32059 8.33262 7.26642C8.18497 7.21273 8.07807 7.18604 7.97069 7.34711C7.86331 7.50818 7.55492 7.87091 7.4608 7.97829C7.367 8.08567 7.27321 8.09926 7.11214 8.01856C6.95107 7.93786 6.43261 7.76806 5.81824 7.21952C5.33956 6.79307 5.01645 6.26555 4.92266 6.10448C4.82886 5.94341 4.91263 5.85657 4.99333 5.7762C5.06578 5.70407 5.1544 5.58828 5.23477 5.49416C5.31514 5.40004 5.34199 5.33293 5.39568 5.22571C5.44937 5.11833 5.42268 5.02438 5.38226 4.94384C5.34183 4.86314 5.02001 4.07089 4.88611 3.74859C4.75528 3.4347 4.62267 3.47723 4.52402 3.47238C4.42991 3.46785 4.32269 3.46656 4.21547 3.46656C4.10825 3.46656 3.93376 3.50683 3.78627 3.66806C3.63895 3.82913 3.22301 4.21838 3.22301 5.01095C3.22301 5.80304 3.7997 6.56861 3.88023 6.67583C3.96077 6.78304 5.01516 8.4091 6.62974 9.10627C7.01365 9.27186 7.31364 9.371 7.54732 9.44539C7.93285 9.56813 8.28378 9.5505 8.56128 9.5091C8.87048 9.46301 9.51347 9.11985 9.64786 8.74386C9.78192 8.36803 9.78192 8.04589 9.74133 7.97862C9.70074 7.91118 9.59336 7.87091 9.43261 7.79021Z" fill="white"/>
</svg>
