<svg width="30" height="21" viewBox="0 0 30 21" fill="none" xmlns="http://www.w3.org/2000/svg">
<path d="M20.9453 0H9.05468C4.05371 0 0 4.28315 0 9.5673V11.4328C0 16.7169 4.05371 21 9.05468 21H20.9453C25.9464 21 30 16.7169 30 11.4328V9.5673C30 4.28315 25.9464 0 20.9453 0ZM19.918 19.1725H10.084C5.55754 19.1725 1.87498 15.2826 1.87498 10.4999C1.87498 5.71741 5.55754 1.82635 10.084 1.82635H19.918C24.4443 1.82635 28.126 5.71741 28.126 10.4999C28.126 15.2826 24.4443 19.1725 19.918 19.1725Z" fill="#E7440E"/>
</svg>
