<svg width="28" height="29" viewBox="0 0 28 29" fill="none" xmlns="http://www.w3.org/2000/svg">
<path d="M27.5934 10.9765C27.4454 10.477 27.052 10.1129 26.5784 10.0375L18.5468 8.75685L14.9549 0.769175C14.7431 0.298214 14.306 0 13.8275 0C13.3489 0 12.9117 0.298214 12.7 0.769175L9.10835 8.75675L1.07651 10.0374C0.602937 10.1129 0.209413 10.477 0.0615585 10.9764C-0.0862961 11.476 0.0369999 12.0243 0.379731 12.3909L6.19157 18.6074L4.81905 27.387C4.73817 27.9046 4.93204 28.4278 5.3192 28.7365C5.53821 28.9111 5.79763 29 6.0583 29C6.25837 29 6.45929 28.9477 6.64327 28.8415L13.8274 24.6968L21.0114 28.8415C21.1965 28.9483 21.3991 28.9992 21.5999 29C22.2935 28.9989 22.8554 28.3816 22.8554 27.6202C22.8554 27.5143 22.8445 27.411 22.8239 27.3119L21.4633 18.6075L27.2751 12.3909C27.6179 12.0243 27.7412 11.476 27.5934 10.9765Z" fill="#854784"/>
</svg>
