<svg width="30" height="21" viewBox="0 0 30 21" fill="none" xmlns="http://www.w3.org/2000/svg">
<path d="M20.9453 0H9.05468C4.05371 0 0 4.28315 0 9.5673V11.4328C0 16.7169 4.05371 21 9.05468 21H20.9453C25.9464 21 30 16.7169 30 11.4328V9.5673C30 4.28315 25.9464 0 20.9453 0ZM19.918 19.1725H10.084C5.55754 19.1725 1.87498 15.2826 1.87498 10.4999C1.87498 5.71741 5.55754 1.82635 10.084 1.82635H19.918C24.4443 1.82635 28.126 5.71741 28.126 10.4999C28.126 15.2826 24.4443 19.1725 19.918 19.1725Z" fill="#E7440E"/>
<path d="M19.9182 6.05261H10.0842C7.76289 6.05261 5.87515 8.04714 5.87515 10.4998C5.87515 12.9514 7.76289 14.946 10.0842 14.946H19.9182C22.2385 14.946 24.1262 12.9515 24.1262 10.4998C24.1262 8.04714 22.2385 6.05261 19.9182 6.05261Z" fill="#E7440E"/>
<path d="M19.9177 3.41131H10.0837C6.38455 3.41131 3.37477 6.5915 3.37477 10.5C3.37477 14.4086 6.38455 17.5878 10.0837 17.5878H19.9177C23.6169 17.5878 26.6258 14.4086 26.6258 10.5C26.6258 6.5915 23.617 3.41131 19.9177 3.41131ZM19.9177 16.5311H10.0837C6.93628 16.5311 4.37479 13.8257 4.37479 10.4999C4.37479 7.1744 6.93628 4.46786 10.0837 4.46786H19.9177C23.0652 4.46786 25.6257 7.1744 25.6257 10.4999C25.6257 13.8257 23.0652 16.5311 19.9177 16.5311Z" fill="#E7440E"/>
</svg>
